<?xml version="1.0" encoding="utf-8" standalone="no"?>
<!DOCTYPE svg PUBLIC "-//W3C//DTD SVG 1.1//EN"
  "http://www.w3.org/Graphics/SVG/1.1/DTD/svg11.dtd">
<svg xmlns:xlink="http://www.w3.org/1999/xlink" width="460.8pt" height="345.6pt" viewBox="0 0 460.8 345.6" xmlns="http://www.w3.org/2000/svg" version="1.1">
 <metadata>
  <rdf:RDF xmlns:dc="http://purl.org/dc/elements/1.1/" xmlns:cc="http://creativecommons.org/ns#" xmlns:rdf="http://www.w3.org/1999/02/22-rdf-syntax-ns#">
   <cc:Work>
    <dc:type rdf:resource="http://purl.org/dc/dcmitype/StillImage"/>
    <dc:date>2024-02-22T17:25:35.807953</dc:date>
    <dc:format>image/svg+xml</dc:format>
    <dc:creator>
     <cc:Agent>
      <dc:title>Matplotlib v3.7.2, https://matplotlib.org/</dc:title>
     </cc:Agent>
    </dc:creator>
   </cc:Work>
  </rdf:RDF>
 </metadata>
 <defs>
  <style type="text/css">*{stroke-linejoin: round; stroke-linecap: butt}</style>
 </defs>
 <g id="figure_1">
  <g id="patch_1">
   <path d="M 0 345.6 
L 460.8 345.6 
L 460.8 0 
L 0 0 
z
" style="fill: #ffffff"/>
  </g>
  <g id="axes_1">
   <g id="patch_2">
    <path d="M 62.3 148.317565 
L 450 148.317565 
L 450 25.44 
L 62.3 25.44 
z
" style="fill: #ffffff"/>
   </g>
   <g id="matplotlib.axis_1">
    <g id="xtick_1">
     <g id="line2d_1">
      <defs>
       <path id="m2a8e57bdbd" d="M 0 0 
L 0 3.5 
" style="stroke: #000000; stroke-width: 0.8"/>
      </defs>
      <g>
       <use xlink:href="#m2a8e57bdbd" x="79.922727" y="148.317565" style="stroke: #000000; stroke-width: 0.8"/>
      </g>
     </g>
     <g id="text_1">
      <!-- 0 -->
      <g transform="translate(76.741477 162.916003) scale(0.1 -0.1)">
       <defs>
        <path id="DejaVuSans-30" d="M 2034 4250 
Q 1547 4250 1301 3770 
Q 1056 3291 1056 2328 
Q 1056 1369 1301 889 
Q 1547 409 2034 409 
Q 2525 409 2770 889 
Q 3016 1369 3016 2328 
Q 3016 3291 2770 3770 
Q 2525 4250 2034 4250 
z
M 2034 4750 
Q 2819 4750 3233 4129 
Q 3647 3509 3647 2328 
Q 3647 1150 3233 529 
Q 2819 -91 2034 -91 
Q 1250 -91 836 529 
Q 422 1150 422 2328 
Q 422 3509 836 4129 
Q 1250 4750 2034 4750 
z
" transform="scale(0.015625)"/>
       </defs>
       <use xlink:href="#DejaVuSans-30"/>
      </g>
     </g>
    </g>
    <g id="xtick_2">
     <g id="line2d_2">
      <g>
       <use xlink:href="#m2a8e57bdbd" x="136.315455" y="148.317565" style="stroke: #000000; stroke-width: 0.8"/>
      </g>
     </g>
     <g id="text_2">
      <!-- 1 -->
      <g transform="translate(133.134205 162.916003) scale(0.1 -0.1)">
       <defs>
        <path id="DejaVuSans-31" d="M 794 531 
L 1825 531 
L 1825 4091 
L 703 3866 
L 703 4441 
L 1819 4666 
L 2450 4666 
L 2450 531 
L 3481 531 
L 3481 0 
L 794 0 
L 794 531 
z
" transform="scale(0.015625)"/>
       </defs>
       <use xlink:href="#DejaVuSans-31"/>
      </g>
     </g>
    </g>
    <g id="xtick_3">
     <g id="line2d_3">
      <g>
       <use xlink:href="#m2a8e57bdbd" x="192.708182" y="148.317565" style="stroke: #000000; stroke-width: 0.8"/>
      </g>
     </g>
     <g id="text_3">
      <!-- 2 -->
      <g transform="translate(189.526932 162.916003) scale(0.1 -0.1)">
       <defs>
        <path id="DejaVuSans-32" d="M 1228 531 
L 3431 531 
L 3431 0 
L 469 0 
L 469 531 
Q 828 903 1448 1529 
Q 2069 2156 2228 2338 
Q 2531 2678 2651 2914 
Q 2772 3150 2772 3378 
Q 2772 3750 2511 3984 
Q 2250 4219 1831 4219 
Q 1534 4219 1204 4116 
Q 875 4013 500 3803 
L 500 4441 
Q 881 4594 1212 4672 
Q 1544 4750 1819 4750 
Q 2544 4750 2975 4387 
Q 3406 4025 3406 3419 
Q 3406 3131 3298 2873 
Q 3191 2616 2906 2266 
Q 2828 2175 2409 1742 
Q 1991 1309 1228 531 
z
" transform="scale(0.015625)"/>
       </defs>
       <use xlink:href="#DejaVuSans-32"/>
      </g>
     </g>
    </g>
    <g id="xtick_4">
     <g id="line2d_4">
      <g>
       <use xlink:href="#m2a8e57bdbd" x="249.100909" y="148.317565" style="stroke: #000000; stroke-width: 0.8"/>
      </g>
     </g>
     <g id="text_4">
      <!-- 3 -->
      <g transform="translate(245.919659 162.916003) scale(0.1 -0.1)">
       <defs>
        <path id="DejaVuSans-33" d="M 2597 2516 
Q 3050 2419 3304 2112 
Q 3559 1806 3559 1356 
Q 3559 666 3084 287 
Q 2609 -91 1734 -91 
Q 1441 -91 1130 -33 
Q 819 25 488 141 
L 488 750 
Q 750 597 1062 519 
Q 1375 441 1716 441 
Q 2309 441 2620 675 
Q 2931 909 2931 1356 
Q 2931 1769 2642 2001 
Q 2353 2234 1838 2234 
L 1294 2234 
L 1294 2753 
L 1863 2753 
Q 2328 2753 2575 2939 
Q 2822 3125 2822 3475 
Q 2822 3834 2567 4026 
Q 2313 4219 1838 4219 
Q 1578 4219 1281 4162 
Q 984 4106 628 3988 
L 628 4550 
Q 988 4650 1302 4700 
Q 1616 4750 1894 4750 
Q 2613 4750 3031 4423 
Q 3450 4097 3450 3541 
Q 3450 3153 3228 2886 
Q 3006 2619 2597 2516 
z
" transform="scale(0.015625)"/>
       </defs>
       <use xlink:href="#DejaVuSans-33"/>
      </g>
     </g>
    </g>
    <g id="xtick_5">
     <g id="line2d_5">
      <g>
       <use xlink:href="#m2a8e57bdbd" x="305.493636" y="148.317565" style="stroke: #000000; stroke-width: 0.8"/>
      </g>
     </g>
     <g id="text_5">
      <!-- 4 -->
      <g transform="translate(302.312386 162.916003) scale(0.1 -0.1)">
       <defs>
        <path id="DejaVuSans-34" d="M 2419 4116 
L 825 1625 
L 2419 1625 
L 2419 4116 
z
M 2253 4666 
L 3047 4666 
L 3047 1625 
L 3713 1625 
L 3713 1100 
L 3047 1100 
L 3047 0 
L 2419 0 
L 2419 1100 
L 313 1100 
L 313 1709 
L 2253 4666 
z
" transform="scale(0.015625)"/>
       </defs>
       <use xlink:href="#DejaVuSans-34"/>
      </g>
     </g>
    </g>
    <g id="xtick_6">
     <g id="line2d_6">
      <g>
       <use xlink:href="#m2a8e57bdbd" x="361.886364" y="148.317565" style="stroke: #000000; stroke-width: 0.8"/>
      </g>
     </g>
     <g id="text_6">
      <!-- 5 -->
      <g transform="translate(358.705114 162.916003) scale(0.1 -0.1)">
       <defs>
        <path id="DejaVuSans-35" d="M 691 4666 
L 3169 4666 
L 3169 4134 
L 1269 4134 
L 1269 2991 
Q 1406 3038 1543 3061 
Q 1681 3084 1819 3084 
Q 2600 3084 3056 2656 
Q 3513 2228 3513 1497 
Q 3513 744 3044 326 
Q 2575 -91 1722 -91 
Q 1428 -91 1123 -41 
Q 819 9 494 109 
L 494 744 
Q 775 591 1075 516 
Q 1375 441 1709 441 
Q 2250 441 2565 725 
Q 2881 1009 2881 1497 
Q 2881 1984 2565 2268 
Q 2250 2553 1709 2553 
Q 1456 2553 1204 2497 
Q 953 2441 691 2322 
L 691 4666 
z
" transform="scale(0.015625)"/>
       </defs>
       <use xlink:href="#DejaVuSans-35"/>
      </g>
     </g>
    </g>
    <g id="xtick_7">
     <g id="line2d_7">
      <g>
       <use xlink:href="#m2a8e57bdbd" x="418.279091" y="148.317565" style="stroke: #000000; stroke-width: 0.8"/>
      </g>
     </g>
     <g id="text_7">
      <!-- 6 -->
      <g transform="translate(415.097841 162.916003) scale(0.1 -0.1)">
       <defs>
        <path id="DejaVuSans-36" d="M 2113 2584 
Q 1688 2584 1439 2293 
Q 1191 2003 1191 1497 
Q 1191 994 1439 701 
Q 1688 409 2113 409 
Q 2538 409 2786 701 
Q 3034 994 3034 1497 
Q 3034 2003 2786 2293 
Q 2538 2584 2113 2584 
z
M 3366 4563 
L 3366 3988 
Q 3128 4100 2886 4159 
Q 2644 4219 2406 4219 
Q 1781 4219 1451 3797 
Q 1122 3375 1075 2522 
Q 1259 2794 1537 2939 
Q 1816 3084 2150 3084 
Q 2853 3084 3261 2657 
Q 3669 2231 3669 1497 
Q 3669 778 3244 343 
Q 2819 -91 2113 -91 
Q 1303 -91 875 529 
Q 447 1150 447 2328 
Q 447 3434 972 4092 
Q 1497 4750 2381 4750 
Q 2619 4750 2861 4703 
Q 3103 4656 3366 4563 
z
" transform="scale(0.015625)"/>
       </defs>
       <use xlink:href="#DejaVuSans-36"/>
      </g>
     </g>
    </g>
   </g>
   <g id="matplotlib.axis_2">
    <g id="ytick_1">
     <g id="line2d_8">
      <defs>
       <path id="m9bd86aa120" d="M 0 0 
L -3.5 0 
" style="stroke: #000000; stroke-width: 0.8"/>
      </defs>
      <g>
       <use xlink:href="#m9bd86aa120" x="62.3" y="126.774096" style="stroke: #000000; stroke-width: 0.8"/>
      </g>
     </g>
     <g id="text_8">
      <!-- 15 -->
      <g transform="translate(42.575 130.573315) scale(0.1 -0.1)">
       <use xlink:href="#DejaVuSans-31"/>
       <use xlink:href="#DejaVuSans-35" x="63.623047"/>
      </g>
     </g>
    </g>
    <g id="ytick_2">
     <g id="line2d_9">
      <g>
       <use xlink:href="#m9bd86aa120" x="62.3" y="100.17722" style="stroke: #000000; stroke-width: 0.8"/>
      </g>
     </g>
     <g id="text_9">
      <!-- 20 -->
      <g transform="translate(42.575 103.976439) scale(0.1 -0.1)">
       <use xlink:href="#DejaVuSans-32"/>
       <use xlink:href="#DejaVuSans-30" x="63.623047"/>
      </g>
     </g>
    </g>
    <g id="ytick_3">
     <g id="line2d_10">
      <g>
       <use xlink:href="#m9bd86aa120" x="62.3" y="73.580345" style="stroke: #000000; stroke-width: 0.8"/>
      </g>
     </g>
     <g id="text_10">
      <!-- 25 -->
      <g transform="translate(42.575 77.379564) scale(0.1 -0.1)">
       <use xlink:href="#DejaVuSans-32"/>
       <use xlink:href="#DejaVuSans-35" x="63.623047"/>
      </g>
     </g>
    </g>
    <g id="ytick_4">
     <g id="line2d_11">
      <g>
       <use xlink:href="#m9bd86aa120" x="62.3" y="46.983469" style="stroke: #000000; stroke-width: 0.8"/>
      </g>
     </g>
     <g id="text_11">
      <!-- 30 -->
      <g transform="translate(42.575 50.782688) scale(0.1 -0.1)">
       <use xlink:href="#DejaVuSans-33"/>
       <use xlink:href="#DejaVuSans-30" x="63.623047"/>
      </g>
     </g>
    </g>
    <g id="text_12">
     <!-- Temperatures, $θ$ / [°C] -->
     <g transform="translate(36.475 143.128783) rotate(-90) scale(0.1 -0.1)">
      <defs>
       <path id="DejaVuSans-54" d="M -19 4666 
L 3928 4666 
L 3928 4134 
L 2272 4134 
L 2272 0 
L 1638 0 
L 1638 4134 
L -19 4134 
L -19 4666 
z
" transform="scale(0.015625)"/>
       <path id="DejaVuSans-65" d="M 3597 1894 
L 3597 1613 
L 953 1613 
Q 991 1019 1311 708 
Q 1631 397 2203 397 
Q 2534 397 2845 478 
Q 3156 559 3463 722 
L 3463 178 
Q 3153 47 2828 -22 
Q 2503 -91 2169 -91 
Q 1331 -91 842 396 
Q 353 884 353 1716 
Q 353 2575 817 3079 
Q 1281 3584 2069 3584 
Q 2775 3584 3186 3129 
Q 3597 2675 3597 1894 
z
M 3022 2063 
Q 3016 2534 2758 2815 
Q 2500 3097 2075 3097 
Q 1594 3097 1305 2825 
Q 1016 2553 972 2059 
L 3022 2063 
z
" transform="scale(0.015625)"/>
       <path id="DejaVuSans-6d" d="M 3328 2828 
Q 3544 3216 3844 3400 
Q 4144 3584 4550 3584 
Q 5097 3584 5394 3201 
Q 5691 2819 5691 2113 
L 5691 0 
L 5113 0 
L 5113 2094 
Q 5113 2597 4934 2840 
Q 4756 3084 4391 3084 
Q 3944 3084 3684 2787 
Q 3425 2491 3425 1978 
L 3425 0 
L 2847 0 
L 2847 2094 
Q 2847 2600 2669 2842 
Q 2491 3084 2119 3084 
Q 1678 3084 1418 2786 
Q 1159 2488 1159 1978 
L 1159 0 
L 581 0 
L 581 3500 
L 1159 3500 
L 1159 2956 
Q 1356 3278 1631 3431 
Q 1906 3584 2284 3584 
Q 2666 3584 2933 3390 
Q 3200 3197 3328 2828 
z
" transform="scale(0.015625)"/>
       <path id="DejaVuSans-70" d="M 1159 525 
L 1159 -1331 
L 581 -1331 
L 581 3500 
L 1159 3500 
L 1159 2969 
Q 1341 3281 1617 3432 
Q 1894 3584 2278 3584 
Q 2916 3584 3314 3078 
Q 3713 2572 3713 1747 
Q 3713 922 3314 415 
Q 2916 -91 2278 -91 
Q 1894 -91 1617 61 
Q 1341 213 1159 525 
z
M 3116 1747 
Q 3116 2381 2855 2742 
Q 2594 3103 2138 3103 
Q 1681 3103 1420 2742 
Q 1159 2381 1159 1747 
Q 1159 1113 1420 752 
Q 1681 391 2138 391 
Q 2594 391 2855 752 
Q 3116 1113 3116 1747 
z
" transform="scale(0.015625)"/>
       <path id="DejaVuSans-72" d="M 2631 2963 
Q 2534 3019 2420 3045 
Q 2306 3072 2169 3072 
Q 1681 3072 1420 2755 
Q 1159 2438 1159 1844 
L 1159 0 
L 581 0 
L 581 3500 
L 1159 3500 
L 1159 2956 
Q 1341 3275 1631 3429 
Q 1922 3584 2338 3584 
Q 2397 3584 2469 3576 
Q 2541 3569 2628 3553 
L 2631 2963 
z
" transform="scale(0.015625)"/>
       <path id="DejaVuSans-61" d="M 2194 1759 
Q 1497 1759 1228 1600 
Q 959 1441 959 1056 
Q 959 750 1161 570 
Q 1363 391 1709 391 
Q 2188 391 2477 730 
Q 2766 1069 2766 1631 
L 2766 1759 
L 2194 1759 
z
M 3341 1997 
L 3341 0 
L 2766 0 
L 2766 531 
Q 2569 213 2275 61 
Q 1981 -91 1556 -91 
Q 1019 -91 701 211 
Q 384 513 384 1019 
Q 384 1609 779 1909 
Q 1175 2209 1959 2209 
L 2766 2209 
L 2766 2266 
Q 2766 2663 2505 2880 
Q 2244 3097 1772 3097 
Q 1472 3097 1187 3025 
Q 903 2953 641 2809 
L 641 3341 
Q 956 3463 1253 3523 
Q 1550 3584 1831 3584 
Q 2591 3584 2966 3190 
Q 3341 2797 3341 1997 
z
" transform="scale(0.015625)"/>
       <path id="DejaVuSans-74" d="M 1172 4494 
L 1172 3500 
L 2356 3500 
L 2356 3053 
L 1172 3053 
L 1172 1153 
Q 1172 725 1289 603 
Q 1406 481 1766 481 
L 2356 481 
L 2356 0 
L 1766 0 
Q 1100 0 847 248 
Q 594 497 594 1153 
L 594 3053 
L 172 3053 
L 172 3500 
L 594 3500 
L 594 4494 
L 1172 4494 
z
" transform="scale(0.015625)"/>
       <path id="DejaVuSans-75" d="M 544 1381 
L 544 3500 
L 1119 3500 
L 1119 1403 
Q 1119 906 1312 657 
Q 1506 409 1894 409 
Q 2359 409 2629 706 
Q 2900 1003 2900 1516 
L 2900 3500 
L 3475 3500 
L 3475 0 
L 2900 0 
L 2900 538 
Q 2691 219 2414 64 
Q 2138 -91 1772 -91 
Q 1169 -91 856 284 
Q 544 659 544 1381 
z
M 1991 3584 
L 1991 3584 
z
" transform="scale(0.015625)"/>
       <path id="DejaVuSans-73" d="M 2834 3397 
L 2834 2853 
Q 2591 2978 2328 3040 
Q 2066 3103 1784 3103 
Q 1356 3103 1142 2972 
Q 928 2841 928 2578 
Q 928 2378 1081 2264 
Q 1234 2150 1697 2047 
L 1894 2003 
Q 2506 1872 2764 1633 
Q 3022 1394 3022 966 
Q 3022 478 2636 193 
Q 2250 -91 1575 -91 
Q 1294 -91 989 -36 
Q 684 19 347 128 
L 347 722 
Q 666 556 975 473 
Q 1284 391 1588 391 
Q 1994 391 2212 530 
Q 2431 669 2431 922 
Q 2431 1156 2273 1281 
Q 2116 1406 1581 1522 
L 1381 1569 
Q 847 1681 609 1914 
Q 372 2147 372 2553 
Q 372 3047 722 3315 
Q 1072 3584 1716 3584 
Q 2034 3584 2315 3537 
Q 2597 3491 2834 3397 
z
" transform="scale(0.015625)"/>
       <path id="DejaVuSans-2c" d="M 750 794 
L 1409 794 
L 1409 256 
L 897 -744 
L 494 -744 
L 750 256 
L 750 794 
z
" transform="scale(0.015625)"/>
       <path id="DejaVuSans-20" transform="scale(0.015625)"/>
       <path id="DejaVuSans-Oblique-3b8" d="M 2913 2219 
L 925 2219 
Q 791 1284 928 888 
Q 1100 400 1566 400 
Q 2034 400 2391 891 
Q 2703 1322 2913 2219 
z
M 3009 2750 
Q 3094 3638 2984 3950 
Q 2813 4444 2353 4444 
Q 1875 4444 1525 3956 
Q 1250 3563 1034 2750 
L 3009 2750 
z
M 2444 4913 
Q 3194 4913 3494 4250 
Q 3794 3591 3566 2422 
Q 3341 1256 2781 594 
Q 2225 -72 1475 -72 
Q 722 -72 425 594 
Q 128 1256 353 2422 
Q 581 3591 1134 4250 
Q 1691 4913 2444 4913 
z
" transform="scale(0.015625)"/>
       <path id="DejaVuSans-2f" d="M 1625 4666 
L 2156 4666 
L 531 -594 
L 0 -594 
L 1625 4666 
z
" transform="scale(0.015625)"/>
       <path id="DejaVuSans-5b" d="M 550 4863 
L 1875 4863 
L 1875 4416 
L 1125 4416 
L 1125 -397 
L 1875 -397 
L 1875 -844 
L 550 -844 
L 550 4863 
z
" transform="scale(0.015625)"/>
       <path id="DejaVuSans-b0" d="M 1600 4347 
Q 1350 4347 1178 4173 
Q 1006 4000 1006 3750 
Q 1006 3503 1178 3333 
Q 1350 3163 1600 3163 
Q 1850 3163 2022 3333 
Q 2194 3503 2194 3750 
Q 2194 3997 2020 4172 
Q 1847 4347 1600 4347 
z
M 1600 4750 
Q 1800 4750 1984 4673 
Q 2169 4597 2303 4453 
Q 2447 4313 2519 4134 
Q 2591 3956 2591 3750 
Q 2591 3338 2302 3052 
Q 2013 2766 1594 2766 
Q 1172 2766 890 3047 
Q 609 3328 609 3750 
Q 609 4169 896 4459 
Q 1184 4750 1600 4750 
z
" transform="scale(0.015625)"/>
       <path id="DejaVuSans-43" d="M 4122 4306 
L 4122 3641 
Q 3803 3938 3442 4084 
Q 3081 4231 2675 4231 
Q 1875 4231 1450 3742 
Q 1025 3253 1025 2328 
Q 1025 1406 1450 917 
Q 1875 428 2675 428 
Q 3081 428 3442 575 
Q 3803 722 4122 1019 
L 4122 359 
Q 3791 134 3420 21 
Q 3050 -91 2638 -91 
Q 1578 -91 968 557 
Q 359 1206 359 2328 
Q 359 3453 968 4101 
Q 1578 4750 2638 4750 
Q 3056 4750 3426 4639 
Q 3797 4528 4122 4306 
z
" transform="scale(0.015625)"/>
       <path id="DejaVuSans-5d" d="M 1947 4863 
L 1947 -844 
L 622 -844 
L 622 -397 
L 1369 -397 
L 1369 4416 
L 622 4416 
L 622 4863 
L 1947 4863 
z
" transform="scale(0.015625)"/>
      </defs>
      <use xlink:href="#DejaVuSans-54" transform="translate(0 0.234375)"/>
      <use xlink:href="#DejaVuSans-65" transform="translate(61.083984 0.234375)"/>
      <use xlink:href="#DejaVuSans-6d" transform="translate(122.607422 0.234375)"/>
      <use xlink:href="#DejaVuSans-70" transform="translate(220.019531 0.234375)"/>
      <use xlink:href="#DejaVuSans-65" transform="translate(283.496094 0.234375)"/>
      <use xlink:href="#DejaVuSans-72" transform="translate(345.019531 0.234375)"/>
      <use xlink:href="#DejaVuSans-61" transform="translate(386.132812 0.234375)"/>
      <use xlink:href="#DejaVuSans-74" transform="translate(447.412109 0.234375)"/>
      <use xlink:href="#DejaVuSans-75" transform="translate(486.621094 0.234375)"/>
      <use xlink:href="#DejaVuSans-72" transform="translate(550 0.234375)"/>
      <use xlink:href="#DejaVuSans-65" transform="translate(591.113281 0.234375)"/>
      <use xlink:href="#DejaVuSans-73" transform="translate(652.636719 0.234375)"/>
      <use xlink:href="#DejaVuSans-2c" transform="translate(704.736328 0.234375)"/>
      <use xlink:href="#DejaVuSans-20" transform="translate(736.523438 0.234375)"/>
      <use xlink:href="#DejaVuSans-Oblique-3b8" transform="translate(768.310547 0.234375)"/>
      <use xlink:href="#DejaVuSans-20" transform="translate(829.492188 0.234375)"/>
      <use xlink:href="#DejaVuSans-2f" transform="translate(861.279297 0.234375)"/>
      <use xlink:href="#DejaVuSans-20" transform="translate(894.970703 0.234375)"/>
      <use xlink:href="#DejaVuSans-5b" transform="translate(926.757812 0.234375)"/>
      <use xlink:href="#DejaVuSans-b0" transform="translate(965.771484 0.234375)"/>
      <use xlink:href="#DejaVuSans-43" transform="translate(1015.771484 0.234375)"/>
      <use xlink:href="#DejaVuSans-5d" transform="translate(1085.595703 0.234375)"/>
     </g>
    </g>
   </g>
   <g id="line2d_12">
    <path d="M 79.922727 78.89972 
L 84.720025 68.26097 
L 87.004453 68.187089 
L 89.321515 62.941595 
L 89.386785 63.015475 
L 94.020909 68.26097 
L 96.696953 85.696699 
L 98.916111 95.301126 
L 101.167904 100.620502 
L 103.615505 111.259252 
L 105.867298 116.135346 
L 119.867576 116.135346 
L 122.54362 98.699616 
L 127.112475 78.456439 
L 129.364268 73.137064 
L 133.965758 52.302844 
L 133.998392 52.450605 
L 136.315455 62.941595 
L 136.348089 62.793834 
L 138.86096 51.859563 
L 141.014848 46.983469 
L 141.047483 47.057349 
L 155.210934 78.89972 
L 159.812424 78.89972 
L 162.325295 89.833991 
L 164.740261 94.414564 
L 166.959419 100.17722 
L 169.243847 100.251101 
L 173.910606 110.815971 
L 173.943241 110.74209 
L 176.651919 104.876002 
L 178.642635 101.603108 
L 181.155505 89.095189 
L 185.659091 78.89972 
L 185.691726 78.9736 
L 188.041423 84.440736 
L 190.358485 100.17722 
L 190.423754 100.02946 
L 192.806086 94.857845 
L 195.090513 94.783965 
L 197.50548 89.53847 
L 204.61984 89.42765 
L 206.806364 87.942658 
L 206.838998 88.038702 
L 209.156061 94.857845 
L 209.22133 94.710085 
L 211.505758 89.53847 
L 211.538392 89.619738 
L 214.508148 96.719627 
L 217.314731 102.689147 
L 221.002449 110.815971 
L 227.986271 110.889851 
L 230.401237 116.135346 
L 232.816204 116.024525 
L 235.035362 114.413937 
L 237.613502 104.905554 
L 239.800025 100.17722 
L 242.084453 100.10334 
L 249.198813 84.219095 
L 251.483241 84.145215 
L 253.898207 78.89972 
L 260.849394 78.89972 
L 263.655976 89.287277 
L 265.744596 95.744408 
L 270.150278 116.201838 
L 270.44399 117.066236 
L 273.707458 123.966648 
L 275.078114 126.803648 
L 277.329907 127.372526 
L 280.756549 134.605398 
L 284.444268 142.732221 
L 286.728695 142.621401 
L 290.775396 128.488117 
L 291.623897 125.000971 
L 296.649638 98.293275 
L 301.120589 82.741491 
L 303.307113 73.321764 
L 305.624175 69.472605 
L 307.941237 62.941595 
L 310.225665 62.867714 
L 312.542727 57.622219 
L 312.607997 57.710876 
L 319.624453 67.352243 
L 324.48702 89.981751 
L 333.918443 111.074551 
L 338.519933 116.430867 
L 340.836995 121.454721 
L 343.121423 121.380841 
L 345.830101 114.982814 
L 347.820816 108.946801 
L 350.268418 89.242949 
L 352.58548 83.775814 
L 355.033081 72.250501 
L 357.350143 57.252818 
L 368.935455 31.025344 
L 368.968089 31.173104 
L 371.48096 42.107375 
L 376.082449 52.746126 
L 383.229444 84.662376 
L 387.830934 95.301126 
L 390.180631 105.496595 
L 392.465059 105.570476 
L 394.977929 110.993283 
L 397.458165 113.387002 
L 399.612054 116.135346 
L 401.831212 116.135346 
L 413.775505 62.498313 
L 418.376995 52.302844 
L 420.661423 52.228964 
L 423.076389 46.983469 
L 425.360816 47.057349 
L 427.775783 52.302844 
L 430.06021 52.376725 
L 432.377273 57.622219 
L 432.377273 57.622219 
" clip-path="url(#p4f04bdd3f2)" style="fill: none; stroke: #1f77b4; stroke-width: 1.5; stroke-linecap: square"/>
   </g>
   <g id="line2d_13">
    <path d="M 79.922727 100.17722 
L 79.955362 90.190152 
L 80.020631 91.995961 
L 80.053266 95.967783 
L 80.118535 95.09147 
L 80.15117 93.411468 
L 80.216439 93.626822 
L 80.249074 94.238812 
L 80.314343 94.016972 
L 80.412247 93.663096 
L 80.444882 93.726589 
L 80.608056 93.454144 
L 80.901768 93.108046 
L 81.750269 92.275681 
L 82.66404 91.660141 
L 83.675715 91.257669 
L 84.817929 91.04435 
L 85.894874 91.091776 
L 88.179301 91.496862 
L 94.673603 92.653121 
L 96.305337 93.302831 
L 99.079285 94.456559 
L 101.331077 95.112208 
L 103.452332 95.699872 
L 103.713409 98.437342 
L 105.802029 119.558247 
L 105.834663 119.336224 
L 105.899933 119.407982 
L 105.997837 119.523599 
L 106.030471 119.497545 
L 106.226279 119.58394 
L 106.911608 119.806435 
L 108.641246 120.182316 
L 110.990943 120.449979 
L 114.743931 120.629234 
L 119.90021 120.668242 
L 120.161288 117.957789 
L 122.249907 96.653286 
L 122.282542 96.866608 
L 122.347811 96.778364 
L 122.510985 96.604292 
L 122.674158 96.512316 
L 123.620564 95.898098 
L 128.385227 92.977571 
L 131.518157 91.305662 
L 134.324739 89.778135 
L 135.532222 89.447184 
L 137.26186 89.240396 
L 140.264251 89.019839 
L 141.92862 89.133799 
L 143.658258 89.522631 
L 145.877416 90.282011 
L 149.858847 91.980591 
L 151.784293 92.684615 
L 154.558241 93.442903 
L 156.548956 93.806929 
L 159.192365 94.031856 
L 159.845059 94.063398 
L 160.106136 96.756668 
L 162.194756 117.727398 
L 162.227391 117.505059 
L 162.29266 117.576496 
L 162.390564 117.691954 
L 162.423199 117.665908 
L 162.619007 117.753279 
L 163.33697 117.999712 
L 165.621397 118.599134 
L 168.232172 119.093587 
L 175.477071 119.888568 
L 176.292938 119.863544 
L 176.554015 117.173395 
L 178.642635 96.269096 
L 178.675269 96.488471 
L 178.740539 96.414693 
L 178.838443 96.294747 
L 178.871077 96.318526 
L 179.09952 96.19722 
L 180.078561 95.740051 
L 184.2558 93.848012 
L 186.377054 93.096304 
L 187.910884 92.88001 
L 188.824655 92.918406 
L 190.227946 93.19998 
L 191.827045 93.523191 
L 193.39351 93.657569 
L 195.547399 93.533578 
L 200.312062 93.110965 
L 202.335412 93.389857 
L 207.981212 94.474009 
L 210.559352 94.911212 
L 216.041978 95.405767 
L 216.237786 95.42989 
L 216.498864 98.132571 
L 218.587483 119.060621 
L 218.620118 118.837545 
L 218.685387 118.906485 
L 218.783291 119.018359 
L 218.815926 118.991301 
L 219.011734 119.072554 
L 219.762332 119.31257 
L 221.818316 119.805485 
L 224.070109 120.079989 
L 227.594655 120.262185 
L 230.270699 120.453366 
L 232.457222 120.570504 
L 232.685665 120.576989 
L 232.946742 117.901833 
L 235.035362 97.110575 
L 235.067997 97.330167 
L 235.133266 97.258114 
L 235.23117 97.140647 
L 235.263805 97.165049 
L 235.492247 97.04839 
L 236.438653 96.618364 
L 238.755715 95.396947 
L 244.303611 92.364271 
L 246.196423 91.54448 
L 247.828157 90.998862 
L 249.720968 90.603934 
L 251.483241 90.520988 
L 254.355093 90.868693 
L 256.215269 91.438408 
L 258.891313 92.206237 
L 263.786515 93.550593 
L 272.630513 96.523951 
L 272.891591 99.250647 
L 274.98021 120.314298 
L 275.012845 120.091811 
L 275.078114 120.162585 
L 275.176019 120.276815 
L 275.208653 120.250333 
L 275.404461 120.334357 
L 276.08979 120.55144 
L 278.04787 120.984313 
L 283.465227 121.916105 
L 286.402348 122.285811 
L 287.838274 122.292569 
L 289.078392 122.17535 
L 289.33947 119.453971 
L 291.428089 98.22226 
L 291.460724 98.43605 
L 291.525993 98.350782 
L 291.623897 98.213665 
L 291.656532 98.231782 
L 291.884975 98.070894 
L 292.961919 97.384837 
L 295.050539 95.898572 
L 300.369992 91.9078 
L 302.295438 90.757613 
L 303.927172 89.980919 
L 305.59154 89.507241 
L 307.810699 89.273843 
L 308.72447 89.338798 
L 310.323569 89.652394 
L 313.423864 90.567993 
L 317.601103 91.725511 
L 321.060379 92.674791 
L 326.934621 94.711611 
L 329.023241 95.153036 
L 329.284318 97.872463 
L 331.372938 118.893362 
L 331.405572 118.671295 
L 331.470842 118.742222 
L 331.568746 118.857001 
L 331.60138 118.83089 
L 331.797189 118.917632 
L 332.547786 119.17583 
L 334.66904 119.73114 
L 337.345084 120.169339 
L 343.219327 120.836315 
L 345.014234 120.784329 
L 345.47112 120.7477 
L 345.732197 118.035315 
L 347.820816 96.880265 
L 347.853451 97.093806 
L 347.918721 97.009154 
L 348.081894 96.841704 
L 348.245067 96.753 
L 349.909436 95.58801 
L 353.368712 93.141004 
L 356.730084 90.730589 
L 358.296549 89.647179 
L 360.026187 88.732076 
L 361.853729 88.091616 
L 362.832769 87.912198 
L 364.562407 87.786406 
L 366.455219 87.924973 
L 368.445934 88.272911 
L 370.567189 88.831002 
L 375.854007 90.721777 
L 379.868072 92.390539 
L 382.968367 93.525318 
L 384.893813 94.056788 
L 385.415968 94.177985 
L 385.677045 96.905642 
L 387.765665 117.972944 
L 387.7983 117.75242 
L 387.863569 117.825643 
L 387.961473 117.944152 
L 387.994108 117.919478 
L 388.189916 118.015197 
L 389.005783 118.344568 
L 391.061768 119.021732 
L 393.215657 119.417339 
L 397.458165 120.016597 
L 401.341692 120.337187 
L 401.863847 120.349756 
L 402.124924 117.654946 
L 404.213544 96.533374 
L 404.246178 96.748808 
L 404.311448 96.665923 
L 404.409352 96.532466 
L 404.441987 96.551947 
L 404.670429 96.40043 
L 405.780008 95.746418 
L 407.901263 94.352842 
L 411.295269 91.784835 
L 413.775505 90.025538 
L 415.439874 89.126544 
L 416.81053 88.582709 
L 418.540168 88.150829 
L 419.910825 88.094545 
L 421.47729 88.241636 
L 423.565909 88.670557 
L 425.654529 89.397821 
L 429.505421 90.691753 
L 432.377273 91.383021 
L 432.377273 91.383021 
" clip-path="url(#p4f04bdd3f2)" style="fill: none; stroke: #ff7f0e; stroke-width: 1.5; stroke-linecap: square"/>
   </g>
   <g id="patch_3">
    <path d="M 62.3 148.317565 
L 62.3 25.44 
" style="fill: none; stroke: #000000; stroke-width: 0.8; stroke-linejoin: miter; stroke-linecap: square"/>
   </g>
   <g id="patch_4">
    <path d="M 450 148.317565 
L 450 25.44 
" style="fill: none; stroke: #000000; stroke-width: 0.8; stroke-linejoin: miter; stroke-linecap: square"/>
   </g>
   <g id="patch_5">
    <path d="M 62.3 148.317565 
L 450 148.317565 
" style="fill: none; stroke: #000000; stroke-width: 0.8; stroke-linejoin: miter; stroke-linecap: square"/>
   </g>
   <g id="patch_6">
    <path d="M 62.3 25.44 
L 450 25.44 
" style="fill: none; stroke: #000000; stroke-width: 0.8; stroke-linejoin: miter; stroke-linecap: square"/>
   </g>
   <g id="text_13">
    <!-- Simulation for weather with auxiliary heat sources -->
    <g transform="translate(104.885312 19.44) scale(0.12 -0.12)">
     <defs>
      <path id="DejaVuSans-53" d="M 3425 4513 
L 3425 3897 
Q 3066 4069 2747 4153 
Q 2428 4238 2131 4238 
Q 1616 4238 1336 4038 
Q 1056 3838 1056 3469 
Q 1056 3159 1242 3001 
Q 1428 2844 1947 2747 
L 2328 2669 
Q 3034 2534 3370 2195 
Q 3706 1856 3706 1288 
Q 3706 609 3251 259 
Q 2797 -91 1919 -91 
Q 1588 -91 1214 -16 
Q 841 59 441 206 
L 441 856 
Q 825 641 1194 531 
Q 1563 422 1919 422 
Q 2459 422 2753 634 
Q 3047 847 3047 1241 
Q 3047 1584 2836 1778 
Q 2625 1972 2144 2069 
L 1759 2144 
Q 1053 2284 737 2584 
Q 422 2884 422 3419 
Q 422 4038 858 4394 
Q 1294 4750 2059 4750 
Q 2388 4750 2728 4690 
Q 3069 4631 3425 4513 
z
" transform="scale(0.015625)"/>
      <path id="DejaVuSans-69" d="M 603 3500 
L 1178 3500 
L 1178 0 
L 603 0 
L 603 3500 
z
M 603 4863 
L 1178 4863 
L 1178 4134 
L 603 4134 
L 603 4863 
z
" transform="scale(0.015625)"/>
      <path id="DejaVuSans-6c" d="M 603 4863 
L 1178 4863 
L 1178 0 
L 603 0 
L 603 4863 
z
" transform="scale(0.015625)"/>
      <path id="DejaVuSans-6f" d="M 1959 3097 
Q 1497 3097 1228 2736 
Q 959 2375 959 1747 
Q 959 1119 1226 758 
Q 1494 397 1959 397 
Q 2419 397 2687 759 
Q 2956 1122 2956 1747 
Q 2956 2369 2687 2733 
Q 2419 3097 1959 3097 
z
M 1959 3584 
Q 2709 3584 3137 3096 
Q 3566 2609 3566 1747 
Q 3566 888 3137 398 
Q 2709 -91 1959 -91 
Q 1206 -91 779 398 
Q 353 888 353 1747 
Q 353 2609 779 3096 
Q 1206 3584 1959 3584 
z
" transform="scale(0.015625)"/>
      <path id="DejaVuSans-6e" d="M 3513 2113 
L 3513 0 
L 2938 0 
L 2938 2094 
Q 2938 2591 2744 2837 
Q 2550 3084 2163 3084 
Q 1697 3084 1428 2787 
Q 1159 2491 1159 1978 
L 1159 0 
L 581 0 
L 581 3500 
L 1159 3500 
L 1159 2956 
Q 1366 3272 1645 3428 
Q 1925 3584 2291 3584 
Q 2894 3584 3203 3211 
Q 3513 2838 3513 2113 
z
" transform="scale(0.015625)"/>
      <path id="DejaVuSans-66" d="M 2375 4863 
L 2375 4384 
L 1825 4384 
Q 1516 4384 1395 4259 
Q 1275 4134 1275 3809 
L 1275 3500 
L 2222 3500 
L 2222 3053 
L 1275 3053 
L 1275 0 
L 697 0 
L 697 3053 
L 147 3053 
L 147 3500 
L 697 3500 
L 697 3744 
Q 697 4328 969 4595 
Q 1241 4863 1831 4863 
L 2375 4863 
z
" transform="scale(0.015625)"/>
      <path id="DejaVuSans-77" d="M 269 3500 
L 844 3500 
L 1563 769 
L 2278 3500 
L 2956 3500 
L 3675 769 
L 4391 3500 
L 4966 3500 
L 4050 0 
L 3372 0 
L 2619 2869 
L 1863 0 
L 1184 0 
L 269 3500 
z
" transform="scale(0.015625)"/>
      <path id="DejaVuSans-68" d="M 3513 2113 
L 3513 0 
L 2938 0 
L 2938 2094 
Q 2938 2591 2744 2837 
Q 2550 3084 2163 3084 
Q 1697 3084 1428 2787 
Q 1159 2491 1159 1978 
L 1159 0 
L 581 0 
L 581 4863 
L 1159 4863 
L 1159 2956 
Q 1366 3272 1645 3428 
Q 1925 3584 2291 3584 
Q 2894 3584 3203 3211 
Q 3513 2838 3513 2113 
z
" transform="scale(0.015625)"/>
      <path id="DejaVuSans-78" d="M 3513 3500 
L 2247 1797 
L 3578 0 
L 2900 0 
L 1881 1375 
L 863 0 
L 184 0 
L 1544 1831 
L 300 3500 
L 978 3500 
L 1906 2253 
L 2834 3500 
L 3513 3500 
z
" transform="scale(0.015625)"/>
      <path id="DejaVuSans-79" d="M 2059 -325 
Q 1816 -950 1584 -1140 
Q 1353 -1331 966 -1331 
L 506 -1331 
L 506 -850 
L 844 -850 
Q 1081 -850 1212 -737 
Q 1344 -625 1503 -206 
L 1606 56 
L 191 3500 
L 800 3500 
L 1894 763 
L 2988 3500 
L 3597 3500 
L 2059 -325 
z
" transform="scale(0.015625)"/>
      <path id="DejaVuSans-63" d="M 3122 3366 
L 3122 2828 
Q 2878 2963 2633 3030 
Q 2388 3097 2138 3097 
Q 1578 3097 1268 2742 
Q 959 2388 959 1747 
Q 959 1106 1268 751 
Q 1578 397 2138 397 
Q 2388 397 2633 464 
Q 2878 531 3122 666 
L 3122 134 
Q 2881 22 2623 -34 
Q 2366 -91 2075 -91 
Q 1284 -91 818 406 
Q 353 903 353 1747 
Q 353 2603 823 3093 
Q 1294 3584 2113 3584 
Q 2378 3584 2631 3529 
Q 2884 3475 3122 3366 
z
" transform="scale(0.015625)"/>
     </defs>
     <use xlink:href="#DejaVuSans-53"/>
     <use xlink:href="#DejaVuSans-69" x="63.476562"/>
     <use xlink:href="#DejaVuSans-6d" x="91.259766"/>
     <use xlink:href="#DejaVuSans-75" x="188.671875"/>
     <use xlink:href="#DejaVuSans-6c" x="252.050781"/>
     <use xlink:href="#DejaVuSans-61" x="279.833984"/>
     <use xlink:href="#DejaVuSans-74" x="341.113281"/>
     <use xlink:href="#DejaVuSans-69" x="380.322266"/>
     <use xlink:href="#DejaVuSans-6f" x="408.105469"/>
     <use xlink:href="#DejaVuSans-6e" x="469.287109"/>
     <use xlink:href="#DejaVuSans-20" x="532.666016"/>
     <use xlink:href="#DejaVuSans-66" x="564.453125"/>
     <use xlink:href="#DejaVuSans-6f" x="599.658203"/>
     <use xlink:href="#DejaVuSans-72" x="660.839844"/>
     <use xlink:href="#DejaVuSans-20" x="701.953125"/>
     <use xlink:href="#DejaVuSans-77" x="733.740234"/>
     <use xlink:href="#DejaVuSans-65" x="815.527344"/>
     <use xlink:href="#DejaVuSans-61" x="877.050781"/>
     <use xlink:href="#DejaVuSans-74" x="938.330078"/>
     <use xlink:href="#DejaVuSans-68" x="977.539062"/>
     <use xlink:href="#DejaVuSans-65" x="1040.917969"/>
     <use xlink:href="#DejaVuSans-72" x="1102.441406"/>
     <use xlink:href="#DejaVuSans-20" x="1143.554688"/>
     <use xlink:href="#DejaVuSans-77" x="1175.341797"/>
     <use xlink:href="#DejaVuSans-69" x="1257.128906"/>
     <use xlink:href="#DejaVuSans-74" x="1284.912109"/>
     <use xlink:href="#DejaVuSans-68" x="1324.121094"/>
     <use xlink:href="#DejaVuSans-20" x="1387.5"/>
     <use xlink:href="#DejaVuSans-61" x="1419.287109"/>
     <use xlink:href="#DejaVuSans-75" x="1480.566406"/>
     <use xlink:href="#DejaVuSans-78" x="1543.945312"/>
     <use xlink:href="#DejaVuSans-69" x="1603.125"/>
     <use xlink:href="#DejaVuSans-6c" x="1630.908203"/>
     <use xlink:href="#DejaVuSans-69" x="1658.691406"/>
     <use xlink:href="#DejaVuSans-61" x="1686.474609"/>
     <use xlink:href="#DejaVuSans-72" x="1747.753906"/>
     <use xlink:href="#DejaVuSans-79" x="1788.867188"/>
     <use xlink:href="#DejaVuSans-20" x="1848.046875"/>
     <use xlink:href="#DejaVuSans-68" x="1879.833984"/>
     <use xlink:href="#DejaVuSans-65" x="1943.212891"/>
     <use xlink:href="#DejaVuSans-61" x="2004.736328"/>
     <use xlink:href="#DejaVuSans-74" x="2066.015625"/>
     <use xlink:href="#DejaVuSans-20" x="2105.224609"/>
     <use xlink:href="#DejaVuSans-73" x="2137.011719"/>
     <use xlink:href="#DejaVuSans-6f" x="2189.111328"/>
     <use xlink:href="#DejaVuSans-75" x="2250.292969"/>
     <use xlink:href="#DejaVuSans-72" x="2313.671875"/>
     <use xlink:href="#DejaVuSans-63" x="2352.535156"/>
     <use xlink:href="#DejaVuSans-65" x="2407.515625"/>
     <use xlink:href="#DejaVuSans-73" x="2469.039062"/>
    </g>
   </g>
   <g id="legend_1">
    <g id="patch_7">
     <path d="M 377.2 62.79625 
L 443 62.79625 
Q 445 62.79625 445 60.79625 
L 445 32.44 
Q 445 30.44 443 30.44 
L 377.2 30.44 
Q 375.2 30.44 375.2 32.44 
L 375.2 60.79625 
Q 375.2 62.79625 377.2 62.79625 
z
" style="fill: #ffffff; opacity: 0.8; stroke: #cccccc; stroke-linejoin: miter"/>
    </g>
    <g id="line2d_14">
     <path d="M 379.2 38.538437 
L 389.2 38.538437 
L 399.2 38.538437 
" style="fill: none; stroke: #1f77b4; stroke-width: 1.5; stroke-linecap: square"/>
    </g>
    <g id="text_14">
     <!-- $θ_{outdoor}$ -->
     <g transform="translate(407.2 42.038437) scale(0.1 -0.1)">
      <defs>
       <path id="DejaVuSans-Oblique-6f" d="M 1625 -91 
Q 1009 -91 651 289 
Q 294 669 294 1325 
Q 294 1706 417 2101 
Q 541 2497 738 2766 
Q 1047 3184 1428 3384 
Q 1809 3584 2291 3584 
Q 2888 3584 3255 3212 
Q 3622 2841 3622 2241 
Q 3622 1825 3500 1412 
Q 3378 1000 3181 728 
Q 2875 309 2494 109 
Q 2113 -91 1625 -91 
z
M 891 1344 
Q 891 869 1089 633 
Q 1288 397 1691 397 
Q 2269 397 2648 901 
Q 3028 1406 3028 2181 
Q 3028 2634 2825 2865 
Q 2622 3097 2228 3097 
Q 1903 3097 1650 2945 
Q 1397 2794 1197 2484 
Q 1050 2253 970 1956 
Q 891 1659 891 1344 
z
" transform="scale(0.015625)"/>
       <path id="DejaVuSans-Oblique-75" d="M 428 1388 
L 838 3500 
L 1416 3500 
L 1006 1409 
Q 975 1256 961 1147 
Q 947 1038 947 966 
Q 947 700 1109 554 
Q 1272 409 1569 409 
Q 2031 409 2368 721 
Q 2706 1034 2809 1563 
L 3194 3500 
L 3769 3500 
L 3091 0 
L 2516 0 
L 2631 550 
Q 2388 244 2052 76 
Q 1716 -91 1338 -91 
Q 878 -91 622 161 
Q 366 413 366 863 
Q 366 956 381 1097 
Q 397 1238 428 1388 
z
" transform="scale(0.015625)"/>
       <path id="DejaVuSans-Oblique-74" d="M 2706 3500 
L 2619 3053 
L 1472 3053 
L 1100 1153 
Q 1081 1047 1072 975 
Q 1063 903 1063 863 
Q 1063 663 1183 572 
Q 1303 481 1569 481 
L 2150 481 
L 2053 0 
L 1503 0 
Q 991 0 739 200 
Q 488 400 488 806 
Q 488 878 497 964 
Q 506 1050 525 1153 
L 897 3053 
L 409 3053 
L 500 3500 
L 978 3500 
L 1172 4494 
L 1747 4494 
L 1556 3500 
L 2706 3500 
z
" transform="scale(0.015625)"/>
       <path id="DejaVuSans-Oblique-64" d="M 2675 525 
Q 2444 222 2128 65 
Q 1813 -91 1428 -91 
Q 903 -91 598 267 
Q 294 625 294 1247 
Q 294 1766 478 2236 
Q 663 2706 1013 3078 
Q 1244 3325 1534 3454 
Q 1825 3584 2144 3584 
Q 2481 3584 2739 3421 
Q 2997 3259 3138 2956 
L 3513 4863 
L 4091 4863 
L 3144 0 
L 2566 0 
L 2675 525 
z
M 891 1350 
Q 891 897 1095 644 
Q 1300 391 1663 391 
Q 1931 391 2161 520 
Q 2391 650 2566 903 
Q 2750 1166 2856 1509 
Q 2963 1853 2963 2188 
Q 2963 2622 2758 2865 
Q 2553 3109 2194 3109 
Q 1922 3109 1687 2981 
Q 1453 2853 1288 2613 
Q 1106 2353 998 2009 
Q 891 1666 891 1350 
z
" transform="scale(0.015625)"/>
       <path id="DejaVuSans-Oblique-72" d="M 2853 2969 
Q 2766 3016 2653 3041 
Q 2541 3066 2413 3066 
Q 1953 3066 1609 2717 
Q 1266 2369 1153 1784 
L 800 0 
L 225 0 
L 909 3500 
L 1484 3500 
L 1375 2956 
Q 1603 3259 1920 3421 
Q 2238 3584 2597 3584 
Q 2691 3584 2781 3573 
Q 2872 3563 2963 3538 
L 2853 2969 
z
" transform="scale(0.015625)"/>
      </defs>
      <use xlink:href="#DejaVuSans-Oblique-3b8" transform="translate(0 0.234375)"/>
      <use xlink:href="#DejaVuSans-Oblique-6f" transform="translate(61.181641 -16.171875) scale(0.7)"/>
      <use xlink:href="#DejaVuSans-Oblique-75" transform="translate(104.008789 -16.171875) scale(0.7)"/>
      <use xlink:href="#DejaVuSans-Oblique-74" transform="translate(148.374023 -16.171875) scale(0.7)"/>
      <use xlink:href="#DejaVuSans-Oblique-64" transform="translate(175.820312 -16.171875) scale(0.7)"/>
      <use xlink:href="#DejaVuSans-Oblique-6f" transform="translate(220.253906 -16.171875) scale(0.7)"/>
      <use xlink:href="#DejaVuSans-Oblique-6f" transform="translate(263.081055 -16.171875) scale(0.7)"/>
      <use xlink:href="#DejaVuSans-Oblique-72" transform="translate(305.908203 -16.171875) scale(0.7)"/>
     </g>
    </g>
    <g id="line2d_15">
     <path d="M 379.2 53.216563 
L 389.2 53.216563 
L 399.2 53.216563 
" style="fill: none; stroke: #ff7f0e; stroke-width: 1.5; stroke-linecap: square"/>
    </g>
    <g id="text_15">
     <!-- $θ_{indoor}$ -->
     <g transform="translate(407.2 56.716563) scale(0.1 -0.1)">
      <defs>
       <path id="DejaVuSans-Oblique-69" d="M 1172 4863 
L 1747 4863 
L 1606 4134 
L 1031 4134 
L 1172 4863 
z
M 909 3500 
L 1484 3500 
L 800 0 
L 225 0 
L 909 3500 
z
" transform="scale(0.015625)"/>
       <path id="DejaVuSans-Oblique-6e" d="M 3566 2113 
L 3156 0 
L 2578 0 
L 2988 2091 
Q 3016 2238 3031 2350 
Q 3047 2463 3047 2528 
Q 3047 2791 2881 2937 
Q 2716 3084 2419 3084 
Q 1956 3084 1622 2776 
Q 1288 2469 1184 1941 
L 800 0 
L 225 0 
L 903 3500 
L 1478 3500 
L 1363 2950 
Q 1603 3253 1940 3418 
Q 2278 3584 2650 3584 
Q 3113 3584 3367 3334 
Q 3622 3084 3622 2631 
Q 3622 2519 3608 2391 
Q 3594 2263 3566 2113 
z
" transform="scale(0.015625)"/>
      </defs>
      <use xlink:href="#DejaVuSans-Oblique-3b8" transform="translate(0 0.234375)"/>
      <use xlink:href="#DejaVuSans-Oblique-69" transform="translate(61.181641 -16.171875) scale(0.7)"/>
      <use xlink:href="#DejaVuSans-Oblique-6e" transform="translate(80.629883 -16.171875) scale(0.7)"/>
      <use xlink:href="#DejaVuSans-Oblique-64" transform="translate(124.995117 -16.171875) scale(0.7)"/>
      <use xlink:href="#DejaVuSans-Oblique-6f" transform="translate(169.428711 -16.171875) scale(0.7)"/>
      <use xlink:href="#DejaVuSans-Oblique-6f" transform="translate(212.255859 -16.171875) scale(0.7)"/>
      <use xlink:href="#DejaVuSans-Oblique-72" transform="translate(255.083008 -16.171875) scale(0.7)"/>
     </g>
    </g>
   </g>
  </g>
  <g id="axes_2">
   <g id="patch_8">
    <path d="M 62.3 300.76 
L 450 300.76 
L 450 177.882435 
L 62.3 177.882435 
z
" style="fill: #ffffff"/>
   </g>
   <g id="matplotlib.axis_3">
    <g id="xtick_8">
     <g id="line2d_16">
      <g>
       <use xlink:href="#m2a8e57bdbd" x="79.922727" y="300.76" style="stroke: #000000; stroke-width: 0.8"/>
      </g>
     </g>
     <g id="text_16">
      <!-- 0 -->
      <g transform="translate(76.741477 315.358437) scale(0.1 -0.1)">
       <use xlink:href="#DejaVuSans-30"/>
      </g>
     </g>
    </g>
    <g id="xtick_9">
     <g id="line2d_17">
      <g>
       <use xlink:href="#m2a8e57bdbd" x="136.315455" y="300.76" style="stroke: #000000; stroke-width: 0.8"/>
      </g>
     </g>
     <g id="text_17">
      <!-- 1 -->
      <g transform="translate(133.134205 315.358437) scale(0.1 -0.1)">
       <use xlink:href="#DejaVuSans-31"/>
      </g>
     </g>
    </g>
    <g id="xtick_10">
     <g id="line2d_18">
      <g>
       <use xlink:href="#m2a8e57bdbd" x="192.708182" y="300.76" style="stroke: #000000; stroke-width: 0.8"/>
      </g>
     </g>
     <g id="text_18">
      <!-- 2 -->
      <g transform="translate(189.526932 315.358437) scale(0.1 -0.1)">
       <use xlink:href="#DejaVuSans-32"/>
      </g>
     </g>
    </g>
    <g id="xtick_11">
     <g id="line2d_19">
      <g>
       <use xlink:href="#m2a8e57bdbd" x="249.100909" y="300.76" style="stroke: #000000; stroke-width: 0.8"/>
      </g>
     </g>
     <g id="text_19">
      <!-- 3 -->
      <g transform="translate(245.919659 315.358437) scale(0.1 -0.1)">
       <use xlink:href="#DejaVuSans-33"/>
      </g>
     </g>
    </g>
    <g id="xtick_12">
     <g id="line2d_20">
      <g>
       <use xlink:href="#m2a8e57bdbd" x="305.493636" y="300.76" style="stroke: #000000; stroke-width: 0.8"/>
      </g>
     </g>
     <g id="text_20">
      <!-- 4 -->
      <g transform="translate(302.312386 315.358437) scale(0.1 -0.1)">
       <use xlink:href="#DejaVuSans-34"/>
      </g>
     </g>
    </g>
    <g id="xtick_13">
     <g id="line2d_21">
      <g>
       <use xlink:href="#m2a8e57bdbd" x="361.886364" y="300.76" style="stroke: #000000; stroke-width: 0.8"/>
      </g>
     </g>
     <g id="text_21">
      <!-- 5 -->
      <g transform="translate(358.705114 315.358437) scale(0.1 -0.1)">
       <use xlink:href="#DejaVuSans-35"/>
      </g>
     </g>
    </g>
    <g id="xtick_14">
     <g id="line2d_22">
      <g>
       <use xlink:href="#m2a8e57bdbd" x="418.279091" y="300.76" style="stroke: #000000; stroke-width: 0.8"/>
      </g>
     </g>
     <g id="text_22">
      <!-- 6 -->
      <g transform="translate(415.097841 315.358437) scale(0.1 -0.1)">
       <use xlink:href="#DejaVuSans-36"/>
      </g>
     </g>
    </g>
    <g id="text_23">
     <!-- Time, $t$ / [day] -->
     <g transform="translate(220.65 329.038125) scale(0.1 -0.1)">
      <defs>
       <path id="DejaVuSans-64" d="M 2906 2969 
L 2906 4863 
L 3481 4863 
L 3481 0 
L 2906 0 
L 2906 525 
Q 2725 213 2448 61 
Q 2172 -91 1784 -91 
Q 1150 -91 751 415 
Q 353 922 353 1747 
Q 353 2572 751 3078 
Q 1150 3584 1784 3584 
Q 2172 3584 2448 3432 
Q 2725 3281 2906 2969 
z
M 947 1747 
Q 947 1113 1208 752 
Q 1469 391 1925 391 
Q 2381 391 2643 752 
Q 2906 1113 2906 1747 
Q 2906 2381 2643 2742 
Q 2381 3103 1925 3103 
Q 1469 3103 1208 2742 
Q 947 2381 947 1747 
z
" transform="scale(0.015625)"/>
      </defs>
      <use xlink:href="#DejaVuSans-54" transform="translate(0 0.015625)"/>
      <use xlink:href="#DejaVuSans-69" transform="translate(61.083984 0.015625)"/>
      <use xlink:href="#DejaVuSans-6d" transform="translate(88.867188 0.015625)"/>
      <use xlink:href="#DejaVuSans-65" transform="translate(186.279297 0.015625)"/>
      <use xlink:href="#DejaVuSans-2c" transform="translate(247.802734 0.015625)"/>
      <use xlink:href="#DejaVuSans-20" transform="translate(279.589844 0.015625)"/>
      <use xlink:href="#DejaVuSans-Oblique-74" transform="translate(311.376953 0.015625)"/>
      <use xlink:href="#DejaVuSans-20" transform="translate(350.585938 0.015625)"/>
      <use xlink:href="#DejaVuSans-2f" transform="translate(382.373047 0.015625)"/>
      <use xlink:href="#DejaVuSans-20" transform="translate(416.064453 0.015625)"/>
      <use xlink:href="#DejaVuSans-5b" transform="translate(447.851562 0.015625)"/>
      <use xlink:href="#DejaVuSans-64" transform="translate(486.865234 0.015625)"/>
      <use xlink:href="#DejaVuSans-61" transform="translate(550.341797 0.015625)"/>
      <use xlink:href="#DejaVuSans-79" transform="translate(611.621094 0.015625)"/>
      <use xlink:href="#DejaVuSans-5d" transform="translate(670.800781 0.015625)"/>
     </g>
    </g>
   </g>
   <g id="matplotlib.axis_4">
    <g id="ytick_5">
     <g id="line2d_23">
      <g>
       <use xlink:href="#m9bd86aa120" x="62.3" y="287.294478" style="stroke: #000000; stroke-width: 0.8"/>
      </g>
     </g>
     <g id="text_24">
      <!-- −200 -->
      <g transform="translate(27.832813 291.093697) scale(0.1 -0.1)">
       <defs>
        <path id="DejaVuSans-2212" d="M 678 2272 
L 4684 2272 
L 4684 1741 
L 678 1741 
L 678 2272 
z
" transform="scale(0.015625)"/>
       </defs>
       <use xlink:href="#DejaVuSans-2212"/>
       <use xlink:href="#DejaVuSans-32" x="83.789062"/>
       <use xlink:href="#DejaVuSans-30" x="147.412109"/>
       <use xlink:href="#DejaVuSans-30" x="211.035156"/>
      </g>
     </g>
    </g>
    <g id="ytick_6">
     <g id="line2d_24">
      <g>
       <use xlink:href="#m9bd86aa120" x="62.3" y="260.519267" style="stroke: #000000; stroke-width: 0.8"/>
      </g>
     </g>
     <g id="text_25">
      <!-- 0 -->
      <g transform="translate(48.9375 264.318485) scale(0.1 -0.1)">
       <use xlink:href="#DejaVuSans-30"/>
      </g>
     </g>
    </g>
    <g id="ytick_7">
     <g id="line2d_25">
      <g>
       <use xlink:href="#m9bd86aa120" x="62.3" y="233.744055" style="stroke: #000000; stroke-width: 0.8"/>
      </g>
     </g>
     <g id="text_26">
      <!-- 200 -->
      <g transform="translate(36.2125 237.543274) scale(0.1 -0.1)">
       <use xlink:href="#DejaVuSans-32"/>
       <use xlink:href="#DejaVuSans-30" x="63.623047"/>
       <use xlink:href="#DejaVuSans-30" x="127.246094"/>
      </g>
     </g>
    </g>
    <g id="ytick_8">
     <g id="line2d_26">
      <g>
       <use xlink:href="#m9bd86aa120" x="62.3" y="206.968844" style="stroke: #000000; stroke-width: 0.8"/>
      </g>
     </g>
     <g id="text_27">
      <!-- 400 -->
      <g transform="translate(36.2125 210.768063) scale(0.1 -0.1)">
       <use xlink:href="#DejaVuSans-34"/>
       <use xlink:href="#DejaVuSans-30" x="63.623047"/>
       <use xlink:href="#DejaVuSans-30" x="127.246094"/>
      </g>
     </g>
    </g>
    <g id="ytick_9">
     <g id="line2d_27">
      <g>
       <use xlink:href="#m9bd86aa120" x="62.3" y="180.193632" style="stroke: #000000; stroke-width: 0.8"/>
      </g>
     </g>
     <g id="text_28">
      <!-- 600 -->
      <g transform="translate(36.2125 183.992851) scale(0.1 -0.1)">
       <use xlink:href="#DejaVuSans-36"/>
       <use xlink:href="#DejaVuSans-30" x="63.623047"/>
       <use xlink:href="#DejaVuSans-30" x="127.246094"/>
      </g>
     </g>
    </g>
    <g id="text_29">
     <!-- Heat flows, $q$ / [W] -->
     <g transform="translate(21.732813 285.771217) rotate(-90) scale(0.1 -0.1)">
      <defs>
       <path id="DejaVuSans-48" d="M 628 4666 
L 1259 4666 
L 1259 2753 
L 3553 2753 
L 3553 4666 
L 4184 4666 
L 4184 0 
L 3553 0 
L 3553 2222 
L 1259 2222 
L 1259 0 
L 628 0 
L 628 4666 
z
" transform="scale(0.015625)"/>
       <path id="DejaVuSans-Oblique-71" d="M 2669 525 
Q 2438 222 2123 65 
Q 1809 -91 1428 -91 
Q 897 -91 595 267 
Q 294 625 294 1253 
Q 294 1759 480 2231 
Q 666 2703 1013 3078 
Q 1238 3322 1530 3453 
Q 1822 3584 2144 3584 
Q 2531 3584 2781 3431 
Q 3031 3278 3144 2969 
L 3244 3494 
L 3822 3494 
L 2888 -1319 
L 2309 -1319 
L 2669 525 
z
M 891 1338 
Q 891 875 1084 633 
Q 1278 391 1644 391 
Q 2188 391 2572 911 
Q 2956 1431 2956 2175 
Q 2956 2625 2757 2864 
Q 2559 3103 2188 3103 
Q 1916 3103 1684 2976 
Q 1453 2850 1281 2606 
Q 1100 2350 995 2006 
Q 891 1663 891 1338 
z
" transform="scale(0.015625)"/>
       <path id="DejaVuSans-57" d="M 213 4666 
L 850 4666 
L 1831 722 
L 2809 4666 
L 3519 4666 
L 4500 722 
L 5478 4666 
L 6119 4666 
L 4947 0 
L 4153 0 
L 3169 4050 
L 2175 0 
L 1381 0 
L 213 4666 
z
" transform="scale(0.015625)"/>
      </defs>
      <use xlink:href="#DejaVuSans-48" transform="translate(0 0.015625)"/>
      <use xlink:href="#DejaVuSans-65" transform="translate(75.195312 0.015625)"/>
      <use xlink:href="#DejaVuSans-61" transform="translate(136.71875 0.015625)"/>
      <use xlink:href="#DejaVuSans-74" transform="translate(197.998047 0.015625)"/>
      <use xlink:href="#DejaVuSans-20" transform="translate(237.207031 0.015625)"/>
      <use xlink:href="#DejaVuSans-66" transform="translate(268.994141 0.015625)"/>
      <use xlink:href="#DejaVuSans-6c" transform="translate(304.199219 0.015625)"/>
      <use xlink:href="#DejaVuSans-6f" transform="translate(331.982422 0.015625)"/>
      <use xlink:href="#DejaVuSans-77" transform="translate(393.164062 0.015625)"/>
      <use xlink:href="#DejaVuSans-73" transform="translate(474.951172 0.015625)"/>
      <use xlink:href="#DejaVuSans-2c" transform="translate(527.050781 0.015625)"/>
      <use xlink:href="#DejaVuSans-20" transform="translate(558.837891 0.015625)"/>
      <use xlink:href="#DejaVuSans-Oblique-71" transform="translate(590.625 0.015625)"/>
      <use xlink:href="#DejaVuSans-20" transform="translate(654.101562 0.015625)"/>
      <use xlink:href="#DejaVuSans-2f" transform="translate(685.888672 0.015625)"/>
      <use xlink:href="#DejaVuSans-20" transform="translate(719.580078 0.015625)"/>
      <use xlink:href="#DejaVuSans-5b" transform="translate(751.367188 0.015625)"/>
      <use xlink:href="#DejaVuSans-57" transform="translate(790.380859 0.015625)"/>
      <use xlink:href="#DejaVuSans-5d" transform="translate(889.257812 0.015625)"/>
     </g>
    </g>
   </g>
   <g id="line2d_28">
    <path d="M 79.922727 186.023018 
L 82.468232 196.598923 
L 85.013737 212.8094 
L 87.232896 229.326272 
L 89.517323 239.219352 
L 93.009234 246.426755 
L 94.347256 249.604323 
L 96.696953 256.270926 
L 98.850842 260.165239 
L 101.755328 260.519267 
L 117.681052 260.415141 
L 119.90021 258.907981 
L 122.510985 249.59444 
L 125.317567 235.968821 
L 127.145109 226.71181 
L 129.396902 219.864773 
L 132.007677 207.226439 
L 134.128931 199.824331 
L 136.315455 196.957442 
L 136.348089 197.033976 
L 138.828325 203.121179 
L 142.809756 219.516723 
L 144.147778 225.685971 
L 146.725918 238.756234 
L 148.55346 248.026142 
L 150.544175 255.995 
L 153.057045 258.937856 
L 155.308838 260.347459 
L 158.833384 260.519267 
L 174.106414 260.417744 
L 176.325572 259.178647 
L 178.773173 254.362981 
L 182.265084 242.572582 
L 184.941128 233.459854 
L 185.78963 231.031027 
L 188.074057 230.205983 
L 190.456389 233.158101 
L 192.708182 238.844031 
L 192.740816 238.760243 
L 195.449495 232.096565 
L 197.407576 228.523121 
L 197.472845 228.56123 
L 199.789907 230.033476 
L 203.020741 243.268273 
L 205.10936 250.622107 
L 207.002172 256.114744 
L 209.351869 259.308804 
L 211.766835 260.435966 
L 216.629402 260.519267 
L 230.597045 260.413839 
L 232.7183 259.543087 
L 235.067997 254.577057 
L 237.580867 241.775964 
L 240.648527 219.206107 
L 242.312896 206.805562 
L 244.662593 195.982786 
L 246.751212 190.13289 
L 246.849116 190.174284 
L 249.166178 191.271353 
L 251.515875 196.696325 
L 254.094015 211.116068 
L 256.411077 227.376947 
L 258.826044 237.196544 
L 261.665261 244.891045 
L 263.655976 249.992955 
L 265.8425 256.29045 
L 268.029024 260.165239 
L 270.93351 260.519267 
L 286.826599 260.425553 
L 289.078392 258.718285 
L 291.623897 249.413082 
L 293.973594 236.497776 
L 298.738258 200.532766 
L 300.990051 188.76493 
L 303.143939 183.467779 
L 303.209209 183.524291 
L 305.526271 185.631397 
L 308.006507 195.867558 
L 310.682551 214.003791 
L 312.77117 229.783654 
L 315.088232 239.500116 
L 317.894815 244.940903 
L 319.918165 249.662486 
L 322.235227 256.29045 
L 324.421751 260.165239 
L 327.326237 260.519267 
L 343.219327 260.425553 
L 345.47112 258.718214 
L 348.016625 249.436443 
L 350.398956 236.683079 
L 353.009731 218.784582 
L 356.697449 197.132482 
L 357.415412 193.429235 
L 359.634571 186.515801 
L 361.886364 186.735173 
L 364.431869 196.785278 
L 367.401625 214.887352 
L 369.163897 225.914616 
L 372.198923 235.850174 
L 373.961195 241.43686 
L 376.474066 251.066951 
L 378.530051 257.14559 
L 380.814478 260.253746 
L 383.947407 260.519267 
L 399.644689 260.408633 
L 401.863847 258.812477 
L 404.409352 249.591477 
L 406.726414 237.389928 
L 411.523712 201.05712 
L 413.775505 189.539159 
L 415.929394 184.261363 
L 415.994663 184.324593 
L 418.311726 186.670535 
L 420.791961 197.175088 
L 423.631178 216.531063 
L 425.621894 230.990724 
L 427.841052 241.199046 
L 430.517096 245.795876 
L 432.377273 249.652433 
L 432.377273 249.652433 
" clip-path="url(#p182ae49d7a)" style="fill: none; stroke: #1f77b4; stroke-width: 1.5; stroke-linecap: square"/>
   </g>
   <g id="line2d_29">
    <path d="M 79.922727 260.519267 
L 79.955362 288.447135 
L 80.020631 283.397366 
L 80.053266 272.290551 
L 80.118535 274.741074 
L 80.15117 279.439038 
L 80.216439 278.836822 
L 80.249074 277.125451 
L 80.314343 277.745805 
L 80.412247 278.735385 
L 80.444882 278.557832 
L 80.608056 279.3197 
L 80.771229 279.853107 
L 81.391288 281.723453 
L 82.207155 283.582043 
L 82.859848 284.606437 
L 83.610446 285.407796 
L 84.393678 285.919951 
L 84.981103 286.074223 
L 85.666431 285.996576 
L 86.449663 285.67512 
L 88.734091 284.544762 
L 94.053544 282.067041 
L 95.48947 280.726028 
L 97.904436 277.841822 
L 99.503535 276.121461 
L 101.004731 274.924486 
L 103.387062 273.091461 
L 103.419697 273.065606 
L 103.452332 273.866132 
L 103.517601 273.522091 
L 103.615505 272.969674 
L 103.64814 273.027152 
L 103.843948 272.441311 
L 104.725084 269.916529 
L 105.769394 266.750489 
L 105.802029 265.822573 
L 105.867298 265.91906 
L 105.899933 266.242773 
L 105.965202 266.101062 
L 106.063106 265.877574 
L 106.095741 265.902304 
L 106.324184 265.643446 
L 108.151726 264.317148 
L 109.457113 263.753138 
L 111.056212 263.314925 
L 113.177466 262.978149 
L 116.34303 262.721269 
L 119.019074 262.681095 
L 119.867576 262.716929 
L 119.90021 261.892182 
L 119.96548 262.214581 
L 120.063384 262.739821 
L 120.096019 262.671459 
L 120.291827 263.216589 
L 122.217273 269.425599 
L 122.249907 270.373608 
L 122.347811 270.023838 
L 122.445715 270.418829 
L 122.47835 270.370989 
L 122.674158 270.767816 
L 123.326852 271.958271 
L 127.895707 279.956442 
L 132.301389 286.568299 
L 134.422643 289.699244 
L 135.23851 290.356262 
L 136.087012 290.762056 
L 139.024133 291.634356 
L 140.362155 291.718878 
L 141.406465 291.597244 
L 142.320236 291.208819 
L 143.462449 290.469462 
L 144.93101 289.166351 
L 146.562744 287.413042 
L 151.849562 281.414202 
L 153.677104 279.960497 
L 155.569916 278.743249 
L 156.907938 278.212419 
L 158.539672 277.81275 
L 159.812424 277.619972 
L 159.845059 278.442373 
L 159.910328 278.130726 
L 160.008232 277.624259 
L 160.040867 277.697701 
L 160.236675 277.196243 
L 162.162121 271.869818 
L 162.194756 270.942364 
L 162.260025 271.040096 
L 162.29266 271.364347 
L 162.357929 271.223075 
L 162.455833 270.999366 
L 162.488468 271.02383 
L 162.716911 270.75989 
L 165.425589 268.633204 
L 167.416305 267.449771 
L 168.819596 266.933464 
L 171.463005 266.051161 
L 174.791742 264.918422 
L 175.933956 264.927119 
L 176.260303 264.964397 
L 176.292938 264.142443 
L 176.358207 264.452195 
L 176.456111 264.955269 
L 176.488746 264.880887 
L 176.684554 265.374146 
L 177.696229 267.928062 
L 178.61 270.524659 
L 178.642635 271.447958 
L 178.707904 271.358295 
L 178.740539 271.040811 
L 178.805808 271.19064 
L 178.968981 271.496676 
L 179.066886 271.594482 
L 179.65431 272.361934 
L 184.027357 277.955461 
L 186.018072 280.084259 
L 186.964478 280.621228 
L 188.008788 280.946131 
L 188.400404 280.922711 
L 189.151002 280.689919 
L 190.032138 280.173937 
L 191.435429 279.30742 
L 192.773451 278.777315 
L 193.39351 278.75084 
L 194.666263 278.885685 
L 195.939015 279.230177 
L 197.374941 279.874032 
L 197.995 280.071209 
L 199.463561 280.338232 
L 200.148889 280.313583 
L 201.225833 279.996947 
L 202.759663 279.28785 
L 207.883308 276.525434 
L 210.069832 275.36404 
L 211.212045 275.149617 
L 212.713241 274.89713 
L 214.86713 274.255738 
L 216.205152 273.805991 
L 216.237786 274.621111 
L 216.303056 274.302041 
L 216.40096 273.785982 
L 216.433594 273.855783 
L 216.629402 273.339356 
L 217.510539 271.076508 
L 218.554848 268.136171 
L 218.587483 267.214135 
L 218.652753 267.318353 
L 218.685387 267.645161 
L 218.750657 267.51048 
L 218.848561 267.296197 
L 218.881195 267.323466 
L 219.077003 267.115965 
L 219.697062 266.563859 
L 221.165623 265.481111 
L 222.373106 264.887558 
L 223.841667 264.418798 
L 225.734478 264.059067 
L 230.335968 263.300336 
L 232.65303 262.976213 
L 232.685665 262.147363 
L 232.750934 262.446696 
L 232.848838 262.934304 
L 232.881473 262.854379 
L 233.077281 263.316235 
L 234.023687 265.547865 
L 235.002727 268.176244 
L 235.035362 269.094844 
L 235.100631 269.00103 
L 235.133266 268.682264 
L 235.198535 268.827618 
L 235.361709 269.123499 
L 235.459613 269.216002 
L 236.047037 269.959202 
L 237.80931 272.409009 
L 240.681162 277.000849 
L 243.161397 280.765032 
L 245.380556 283.712518 
L 247.142828 285.634775 
L 248.513485 286.672325 
L 249.557795 287.237007 
L 250.56947 287.470681 
L 251.646414 287.495751 
L 252.821263 287.220539 
L 254.06138 286.738731 
L 255.040421 286.03135 
L 259.968258 282.086345 
L 262.122146 280.569016 
L 263.917054 278.922342 
L 267.213157 275.532519 
L 269.693392 273.013693 
L 271.259857 271.658642 
L 272.597879 270.75535 
L 272.630513 271.561675 
L 272.695783 271.225289 
L 272.793687 270.683923 
L 272.826322 270.745461 
L 273.02213 270.181219 
L 273.903266 267.736095 
L 274.947576 264.634658 
L 274.98021 263.70835 
L 275.04548 263.807603 
L 275.078114 264.132599 
L 275.143384 263.993494 
L 275.241288 263.77367 
L 275.273923 263.79954 
L 275.469731 263.585999 
L 276.02452 263.096895 
L 277.166734 262.326138 
L 280.103855 260.800358 
L 284.901153 258.615748 
L 286.565522 258.159426 
L 287.283485 258.116649 
L 288.327795 258.277288 
L 289.045758 258.492657 
L 289.078392 257.677701 
L 289.143662 258.008839 
L 289.241566 258.545066 
L 289.2742 258.48111 
L 289.470008 259.042768 
L 291.395455 265.046132 
L 291.428089 265.986125 
L 291.525993 265.626726 
L 291.623897 266.010158 
L 291.656532 265.959496 
L 291.85234 266.339188 
L 292.570303 267.620529 
L 294.528384 271.367791 
L 297.693948 278.298284 
L 299.749933 282.476164 
L 301.610109 285.779456 
L 303.437652 288.507894 
L 304.547231 289.60046 
L 305.65681 290.388034 
L 306.962197 290.847937 
L 308.039141 290.997951 
L 308.757104 290.816129 
L 309.736145 290.33842 
L 310.910993 289.50428 
L 313.619672 287.222769 
L 316.39362 284.972373 
L 320.734032 281.825748 
L 322.561574 279.880222 
L 325.433426 276.90806 
L 327.06516 275.718015 
L 328.990606 274.586499 
L 329.023241 275.395308 
L 329.08851 275.06416 
L 329.186414 274.530477 
L 329.219049 274.594487 
L 329.414857 274.044768 
L 330.295993 271.656107 
L 331.340303 268.606747 
L 331.372938 267.681858 
L 331.438207 267.780462 
L 331.470842 268.104506 
L 331.536111 267.964383 
L 331.634015 267.742145 
L 331.66665 267.766816 
L 331.895093 267.504281 
L 334.603771 265.377025 
L 336.20287 264.571705 
L 338.29149 263.782016 
L 343.251961 262.245699 
L 344.524714 262.30929 
L 345.438485 262.488389 
L 345.47112 261.669986 
L 345.536389 261.994905 
L 345.634293 262.521768 
L 345.666928 262.454591 
L 345.862736 262.997122 
L 347.788182 268.802375 
L 347.820816 269.738883 
L 347.918721 269.378456 
L 348.016625 269.760673 
L 348.049259 269.710444 
L 348.245067 270.094768 
L 349.126204 271.762349 
L 356.958527 287.436164 
L 357.970202 289.402968 
L 359.471397 291.822981 
L 360.221995 292.747806 
L 361.527382 294.037057 
L 362.343249 294.60242 
L 363.387559 294.997816 
L 364.431869 295.172797 
L 365.410909 295.063081 
L 366.683662 294.699193 
L 368.315396 293.884516 
L 369.849226 292.873973 
L 371.121978 291.705148 
L 377.714184 284.818911 
L 380.586035 281.485712 
L 382.119865 279.930195 
L 383.947407 278.309013 
L 385.383333 277.316149 
L 385.415968 278.121944 
L 385.481237 277.784861 
L 385.579141 277.242506 
L 385.611776 277.303685 
L 385.807584 276.737583 
L 386.688721 274.286511 
L 387.73303 271.182066 
L 387.765665 270.255719 
L 387.830934 270.347603 
L 387.863569 270.66763 
L 387.928838 270.520532 
L 388.092012 270.225655 
L 388.189916 270.137562 
L 388.679436 269.574315 
L 390.474343 267.753684 
L 391.583923 267.003268 
L 393.215657 266.216608 
L 396.152778 264.960965 
L 399.51415 263.914826 
L 401.831212 263.61097 
L 401.863847 262.782797 
L 401.929116 263.094665 
L 402.02702 263.60335 
L 402.059655 263.52971 
L 402.255463 264.039716 
L 404.180909 269.770661 
L 404.213544 270.70893 
L 404.311448 270.33827 
L 404.409352 270.711468 
L 404.441987 270.656992 
L 404.637795 271.014315 
L 405.290488 272.095426 
L 407.346473 275.711551 
L 409.663535 280.458243 
L 413.644966 288.68205 
L 414.624007 290.259721 
L 416.059933 292.212186 
L 417.006338 293.111425 
L 418.311726 294.068701 
L 419.747652 294.315291 
L 420.726692 294.177024 
L 422.325791 293.493428 
L 423.468005 292.77552 
L 424.708123 291.644397 
L 427.514705 288.639235 
L 428.297938 287.907483 
L 429.668594 286.942847 
L 431.953022 285.416185 
L 432.377273 285.111394 
L 432.377273 285.111394 
" clip-path="url(#p182ae49d7a)" style="fill: none; stroke: #ff7f0e; stroke-width: 1.5; stroke-linecap: square"/>
   </g>
   <g id="patch_9">
    <path d="M 62.3 300.76 
L 62.3 177.882435 
" style="fill: none; stroke: #000000; stroke-width: 0.8; stroke-linejoin: miter; stroke-linecap: square"/>
   </g>
   <g id="patch_10">
    <path d="M 450 300.76 
L 450 177.882435 
" style="fill: none; stroke: #000000; stroke-width: 0.8; stroke-linejoin: miter; stroke-linecap: square"/>
   </g>
   <g id="patch_11">
    <path d="M 62.3 300.76 
L 450 300.76 
" style="fill: none; stroke: #000000; stroke-width: 0.8; stroke-linejoin: miter; stroke-linecap: square"/>
   </g>
   <g id="patch_12">
    <path d="M 62.3 177.882435 
L 450 177.882435 
" style="fill: none; stroke: #000000; stroke-width: 0.8; stroke-linejoin: miter; stroke-linecap: square"/>
   </g>
   <g id="legend_2">
    <g id="patch_13">
     <path d="M 384.6 215.258997 
L 443 215.258997 
Q 445 215.258997 445 213.258997 
L 445 184.882435 
Q 445 182.882435 443 182.882435 
L 384.6 182.882435 
Q 382.6 182.882435 382.6 184.882435 
L 382.6 213.258997 
Q 382.6 215.258997 384.6 215.258997 
z
" style="fill: #ffffff; opacity: 0.8; stroke: #cccccc; stroke-linejoin: miter"/>
    </g>
    <g id="line2d_30">
     <path d="M 386.6 190.980872 
L 396.6 190.980872 
L 406.6 190.980872 
" style="fill: none; stroke: #1f77b4; stroke-width: 1.5; stroke-linecap: square"/>
    </g>
    <g id="text_30">
     <!-- $E_{total}$ -->
     <g transform="translate(414.6 194.480872) scale(0.1 -0.1)">
      <defs>
       <path id="DejaVuSans-Oblique-45" d="M 1081 4666 
L 4031 4666 
L 3928 4134 
L 1606 4134 
L 1338 2753 
L 3566 2753 
L 3463 2222 
L 1234 2222 
L 909 531 
L 3284 531 
L 3181 0 
L 172 0 
L 1081 4666 
z
" transform="scale(0.015625)"/>
       <path id="DejaVuSans-Oblique-61" d="M 3438 1997 
L 3047 0 
L 2472 0 
L 2578 531 
Q 2325 219 2001 64 
Q 1678 -91 1281 -91 
Q 834 -91 548 182 
Q 263 456 263 884 
Q 263 1497 752 1853 
Q 1241 2209 2100 2209 
L 2900 2209 
L 2931 2363 
Q 2938 2388 2941 2417 
Q 2944 2447 2944 2509 
Q 2944 2788 2717 2942 
Q 2491 3097 2081 3097 
Q 1800 3097 1504 3025 
Q 1209 2953 897 2809 
L 997 3341 
Q 1322 3463 1633 3523 
Q 1944 3584 2234 3584 
Q 2853 3584 3176 3315 
Q 3500 3047 3500 2534 
Q 3500 2431 3484 2292 
Q 3469 2153 3438 1997 
z
M 2816 1759 
L 2241 1759 
Q 1534 1759 1195 1570 
Q 856 1381 856 984 
Q 856 709 1029 553 
Q 1203 397 1509 397 
Q 1978 397 2328 733 
Q 2678 1069 2791 1631 
L 2816 1759 
z
" transform="scale(0.015625)"/>
       <path id="DejaVuSans-Oblique-6c" d="M 1172 4863 
L 1747 4863 
L 800 0 
L 225 0 
L 1172 4863 
z
" transform="scale(0.015625)"/>
      </defs>
      <use xlink:href="#DejaVuSans-Oblique-45" transform="translate(0 0.09375)"/>
      <use xlink:href="#DejaVuSans-Oblique-74" transform="translate(63.183594 -16.3125) scale(0.7)"/>
      <use xlink:href="#DejaVuSans-Oblique-6f" transform="translate(90.629883 -16.3125) scale(0.7)"/>
      <use xlink:href="#DejaVuSans-Oblique-74" transform="translate(133.457031 -16.3125) scale(0.7)"/>
      <use xlink:href="#DejaVuSans-Oblique-61" transform="translate(160.90332 -16.3125) scale(0.7)"/>
      <use xlink:href="#DejaVuSans-Oblique-6c" transform="translate(203.798828 -16.3125) scale(0.7)"/>
     </g>
    </g>
    <g id="line2d_31">
     <path d="M 386.6 205.658997 
L 396.6 205.658997 
L 406.6 205.658997 
" style="fill: none; stroke: #ff7f0e; stroke-width: 1.5; stroke-linecap: square"/>
    </g>
    <g id="text_31">
     <!-- $q_{HVAC}$ -->
     <g transform="translate(414.6 209.158997) scale(0.1 -0.1)">
      <defs>
       <path id="DejaVuSans-Oblique-48" d="M 1081 4666 
L 1716 4666 
L 1344 2753 
L 3634 2753 
L 4006 4666 
L 4641 4666 
L 3731 0 
L 3097 0 
L 3531 2222 
L 1241 2222 
L 806 0 
L 172 0 
L 1081 4666 
z
" transform="scale(0.015625)"/>
       <path id="DejaVuSans-Oblique-56" d="M 1319 0 
L 500 4666 
L 1119 4666 
L 1797 653 
L 4063 4666 
L 4750 4666 
L 2053 0 
L 1319 0 
z
" transform="scale(0.015625)"/>
       <path id="DejaVuSans-Oblique-41" d="M 2356 4666 
L 3072 4666 
L 3938 0 
L 3278 0 
L 3084 1197 
L 984 1197 
L 325 0 
L -341 0 
L 2356 4666 
z
M 2584 4044 
L 1275 1722 
L 2988 1722 
L 2584 4044 
z
" transform="scale(0.015625)"/>
       <path id="DejaVuSans-Oblique-43" d="M 4447 4306 
L 4319 3641 
Q 4019 3944 3683 4091 
Q 3347 4238 2956 4238 
Q 2422 4238 2017 3981 
Q 1613 3725 1319 3200 
Q 1131 2863 1032 2486 
Q 934 2109 934 1728 
Q 934 1091 1264 756 
Q 1594 422 2222 422 
Q 2656 422 3056 561 
Q 3456 700 3834 978 
L 3688 231 
Q 3316 72 2936 -9 
Q 2556 -91 2175 -91 
Q 1278 -91 773 396 
Q 269 884 269 1753 
Q 269 2309 461 2846 
Q 653 3384 1013 3828 
Q 1394 4300 1883 4525 
Q 2372 4750 3022 4750 
Q 3422 4750 3780 4639 
Q 4138 4528 4447 4306 
z
" transform="scale(0.015625)"/>
      </defs>
      <use xlink:href="#DejaVuSans-Oblique-71"/>
      <use xlink:href="#DejaVuSans-Oblique-48" transform="translate(63.476562 -16.40625) scale(0.7)"/>
      <use xlink:href="#DejaVuSans-Oblique-56" transform="translate(116.113281 -16.40625) scale(0.7)"/>
      <use xlink:href="#DejaVuSans-Oblique-41" transform="translate(163.999023 -16.40625) scale(0.7)"/>
      <use xlink:href="#DejaVuSans-Oblique-43" transform="translate(211.884766 -16.40625) scale(0.7)"/>
     </g>
    </g>
   </g>
  </g>
 </g>
 <defs>
  <clipPath id="p4f04bdd3f2">
   <rect x="62.3" y="25.44" width="387.7" height="122.877565"/>
  </clipPath>
  <clipPath id="p182ae49d7a">
   <rect x="62.3" y="177.882435" width="387.7" height="122.877565"/>
  </clipPath>
 </defs>
</svg>
