<?xml version="1.0" encoding="utf-8" standalone="no"?>
<!DOCTYPE svg PUBLIC "-//W3C//DTD SVG 1.1//EN"
  "http://www.w3.org/Graphics/SVG/1.1/DTD/svg11.dtd">
<svg xmlns:xlink="http://www.w3.org/1999/xlink" width="460.8pt" height="345.6pt" viewBox="0 0 460.8 345.6" xmlns="http://www.w3.org/2000/svg" version="1.1">
 <metadata>
  <rdf:RDF xmlns:dc="http://purl.org/dc/elements/1.1/" xmlns:cc="http://creativecommons.org/ns#" xmlns:rdf="http://www.w3.org/1999/02/22-rdf-syntax-ns#">
   <cc:Work>
    <dc:type rdf:resource="http://purl.org/dc/dcmitype/StillImage"/>
    <dc:date>2024-02-22T17:22:13.085744</dc:date>
    <dc:format>image/svg+xml</dc:format>
    <dc:creator>
     <cc:Agent>
      <dc:title>Matplotlib v3.7.2, https://matplotlib.org/</dc:title>
     </cc:Agent>
    </dc:creator>
   </cc:Work>
  </rdf:RDF>
 </metadata>
 <defs>
  <style type="text/css">*{stroke-linejoin: round; stroke-linecap: butt}</style>
 </defs>
 <g id="figure_1">
  <g id="patch_1">
   <path d="M 0 345.6 
L 460.8 345.6 
L 460.8 0 
L 0 0 
z
" style="fill: #ffffff"/>
  </g>
  <g id="axes_1">
   <g id="patch_2">
    <path d="M 53.93 149.16 
L 450 149.16 
L 450 25.44 
L 53.93 25.44 
z
" style="fill: #ffffff"/>
   </g>
   <g id="matplotlib.axis_1">
    <g id="xtick_1">
     <g id="line2d_1">
      <defs>
       <path id="m53694ed4a0" d="M 0 0 
L 0 3.5 
" style="stroke: #000000; stroke-width: 0.8"/>
      </defs>
      <g>
       <use xlink:href="#m53694ed4a0" x="71.933182" y="149.16" style="stroke: #000000; stroke-width: 0.8"/>
      </g>
     </g>
     <g id="text_1">
      <!-- 0 -->
      <g transform="translate(68.751932 163.758437) scale(0.1 -0.1)">
       <defs>
        <path id="DejaVuSans-30" d="M 2034 4250 
Q 1547 4250 1301 3770 
Q 1056 3291 1056 2328 
Q 1056 1369 1301 889 
Q 1547 409 2034 409 
Q 2525 409 2770 889 
Q 3016 1369 3016 2328 
Q 3016 3291 2770 3770 
Q 2525 4250 2034 4250 
z
M 2034 4750 
Q 2819 4750 3233 4129 
Q 3647 3509 3647 2328 
Q 3647 1150 3233 529 
Q 2819 -91 2034 -91 
Q 1250 -91 836 529 
Q 422 1150 422 2328 
Q 422 3509 836 4129 
Q 1250 4750 2034 4750 
z
" transform="scale(0.015625)"/>
       </defs>
       <use xlink:href="#DejaVuSans-30"/>
      </g>
     </g>
    </g>
    <g id="xtick_2">
     <g id="line2d_2">
      <g>
       <use xlink:href="#m53694ed4a0" x="129.543364" y="149.16" style="stroke: #000000; stroke-width: 0.8"/>
      </g>
     </g>
     <g id="text_2">
      <!-- 1 -->
      <g transform="translate(126.362114 163.758437) scale(0.1 -0.1)">
       <defs>
        <path id="DejaVuSans-31" d="M 794 531 
L 1825 531 
L 1825 4091 
L 703 3866 
L 703 4441 
L 1819 4666 
L 2450 4666 
L 2450 531 
L 3481 531 
L 3481 0 
L 794 0 
L 794 531 
z
" transform="scale(0.015625)"/>
       </defs>
       <use xlink:href="#DejaVuSans-31"/>
      </g>
     </g>
    </g>
    <g id="xtick_3">
     <g id="line2d_3">
      <g>
       <use xlink:href="#m53694ed4a0" x="187.153545" y="149.16" style="stroke: #000000; stroke-width: 0.8"/>
      </g>
     </g>
     <g id="text_3">
      <!-- 2 -->
      <g transform="translate(183.972295 163.758437) scale(0.1 -0.1)">
       <defs>
        <path id="DejaVuSans-32" d="M 1228 531 
L 3431 531 
L 3431 0 
L 469 0 
L 469 531 
Q 828 903 1448 1529 
Q 2069 2156 2228 2338 
Q 2531 2678 2651 2914 
Q 2772 3150 2772 3378 
Q 2772 3750 2511 3984 
Q 2250 4219 1831 4219 
Q 1534 4219 1204 4116 
Q 875 4013 500 3803 
L 500 4441 
Q 881 4594 1212 4672 
Q 1544 4750 1819 4750 
Q 2544 4750 2975 4387 
Q 3406 4025 3406 3419 
Q 3406 3131 3298 2873 
Q 3191 2616 2906 2266 
Q 2828 2175 2409 1742 
Q 1991 1309 1228 531 
z
" transform="scale(0.015625)"/>
       </defs>
       <use xlink:href="#DejaVuSans-32"/>
      </g>
     </g>
    </g>
    <g id="xtick_4">
     <g id="line2d_4">
      <g>
       <use xlink:href="#m53694ed4a0" x="244.763727" y="149.16" style="stroke: #000000; stroke-width: 0.8"/>
      </g>
     </g>
     <g id="text_4">
      <!-- 3 -->
      <g transform="translate(241.582477 163.758437) scale(0.1 -0.1)">
       <defs>
        <path id="DejaVuSans-33" d="M 2597 2516 
Q 3050 2419 3304 2112 
Q 3559 1806 3559 1356 
Q 3559 666 3084 287 
Q 2609 -91 1734 -91 
Q 1441 -91 1130 -33 
Q 819 25 488 141 
L 488 750 
Q 750 597 1062 519 
Q 1375 441 1716 441 
Q 2309 441 2620 675 
Q 2931 909 2931 1356 
Q 2931 1769 2642 2001 
Q 2353 2234 1838 2234 
L 1294 2234 
L 1294 2753 
L 1863 2753 
Q 2328 2753 2575 2939 
Q 2822 3125 2822 3475 
Q 2822 3834 2567 4026 
Q 2313 4219 1838 4219 
Q 1578 4219 1281 4162 
Q 984 4106 628 3988 
L 628 4550 
Q 988 4650 1302 4700 
Q 1616 4750 1894 4750 
Q 2613 4750 3031 4423 
Q 3450 4097 3450 3541 
Q 3450 3153 3228 2886 
Q 3006 2619 2597 2516 
z
" transform="scale(0.015625)"/>
       </defs>
       <use xlink:href="#DejaVuSans-33"/>
      </g>
     </g>
    </g>
    <g id="xtick_5">
     <g id="line2d_5">
      <g>
       <use xlink:href="#m53694ed4a0" x="302.373909" y="149.16" style="stroke: #000000; stroke-width: 0.8"/>
      </g>
     </g>
     <g id="text_5">
      <!-- 4 -->
      <g transform="translate(299.192659 163.758437) scale(0.1 -0.1)">
       <defs>
        <path id="DejaVuSans-34" d="M 2419 4116 
L 825 1625 
L 2419 1625 
L 2419 4116 
z
M 2253 4666 
L 3047 4666 
L 3047 1625 
L 3713 1625 
L 3713 1100 
L 3047 1100 
L 3047 0 
L 2419 0 
L 2419 1100 
L 313 1100 
L 313 1709 
L 2253 4666 
z
" transform="scale(0.015625)"/>
       </defs>
       <use xlink:href="#DejaVuSans-34"/>
      </g>
     </g>
    </g>
    <g id="xtick_6">
     <g id="line2d_6">
      <g>
       <use xlink:href="#m53694ed4a0" x="359.984091" y="149.16" style="stroke: #000000; stroke-width: 0.8"/>
      </g>
     </g>
     <g id="text_6">
      <!-- 5 -->
      <g transform="translate(356.802841 163.758437) scale(0.1 -0.1)">
       <defs>
        <path id="DejaVuSans-35" d="M 691 4666 
L 3169 4666 
L 3169 4134 
L 1269 4134 
L 1269 2991 
Q 1406 3038 1543 3061 
Q 1681 3084 1819 3084 
Q 2600 3084 3056 2656 
Q 3513 2228 3513 1497 
Q 3513 744 3044 326 
Q 2575 -91 1722 -91 
Q 1428 -91 1123 -41 
Q 819 9 494 109 
L 494 744 
Q 775 591 1075 516 
Q 1375 441 1709 441 
Q 2250 441 2565 725 
Q 2881 1009 2881 1497 
Q 2881 1984 2565 2268 
Q 2250 2553 1709 2553 
Q 1456 2553 1204 2497 
Q 953 2441 691 2322 
L 691 4666 
z
" transform="scale(0.015625)"/>
       </defs>
       <use xlink:href="#DejaVuSans-35"/>
      </g>
     </g>
    </g>
    <g id="xtick_7">
     <g id="line2d_7">
      <g>
       <use xlink:href="#m53694ed4a0" x="417.594273" y="149.16" style="stroke: #000000; stroke-width: 0.8"/>
      </g>
     </g>
     <g id="text_7">
      <!-- 6 -->
      <g transform="translate(414.413023 163.758437) scale(0.1 -0.1)">
       <defs>
        <path id="DejaVuSans-36" d="M 2113 2584 
Q 1688 2584 1439 2293 
Q 1191 2003 1191 1497 
Q 1191 994 1439 701 
Q 1688 409 2113 409 
Q 2538 409 2786 701 
Q 3034 994 3034 1497 
Q 3034 2003 2786 2293 
Q 2538 2584 2113 2584 
z
M 3366 4563 
L 3366 3988 
Q 3128 4100 2886 4159 
Q 2644 4219 2406 4219 
Q 1781 4219 1451 3797 
Q 1122 3375 1075 2522 
Q 1259 2794 1537 2939 
Q 1816 3084 2150 3084 
Q 2853 3084 3261 2657 
Q 3669 2231 3669 1497 
Q 3669 778 3244 343 
Q 2819 -91 2113 -91 
Q 1303 -91 875 529 
Q 447 1150 447 2328 
Q 447 3434 972 4092 
Q 1497 4750 2381 4750 
Q 2619 4750 2861 4703 
Q 3103 4656 3366 4563 
z
" transform="scale(0.015625)"/>
       </defs>
       <use xlink:href="#DejaVuSans-36"/>
      </g>
     </g>
    </g>
   </g>
   <g id="matplotlib.axis_2">
    <g id="ytick_1">
     <g id="line2d_8">
      <defs>
       <path id="m9c1547fda1" d="M 0 0 
L -3.5 0 
" style="stroke: #000000; stroke-width: 0.8"/>
      </defs>
      <g>
       <use xlink:href="#m9c1547fda1" x="53.93" y="120.32278" style="stroke: #000000; stroke-width: 0.8"/>
      </g>
     </g>
     <g id="text_8">
      <!-- 5 -->
      <g transform="translate(40.5675 124.121999) scale(0.1 -0.1)">
       <use xlink:href="#DejaVuSans-35"/>
      </g>
     </g>
    </g>
    <g id="ytick_2">
     <g id="line2d_9">
      <g>
       <use xlink:href="#m9c1547fda1" x="53.93" y="91.3058" style="stroke: #000000; stroke-width: 0.8"/>
      </g>
     </g>
     <g id="text_9">
      <!-- 10 -->
      <g transform="translate(34.205 95.105019) scale(0.1 -0.1)">
       <use xlink:href="#DejaVuSans-31"/>
       <use xlink:href="#DejaVuSans-30" x="63.623047"/>
      </g>
     </g>
    </g>
    <g id="ytick_3">
     <g id="line2d_10">
      <g>
       <use xlink:href="#m9c1547fda1" x="53.93" y="62.28882" style="stroke: #000000; stroke-width: 0.8"/>
      </g>
     </g>
     <g id="text_10">
      <!-- 15 -->
      <g transform="translate(34.205 66.088039) scale(0.1 -0.1)">
       <use xlink:href="#DejaVuSans-31"/>
       <use xlink:href="#DejaVuSans-35" x="63.623047"/>
      </g>
     </g>
    </g>
    <g id="ytick_4">
     <g id="line2d_11">
      <g>
       <use xlink:href="#m9c1547fda1" x="53.93" y="33.27184" style="stroke: #000000; stroke-width: 0.8"/>
      </g>
     </g>
     <g id="text_11">
      <!-- 20 -->
      <g transform="translate(34.205 37.071059) scale(0.1 -0.1)">
       <use xlink:href="#DejaVuSans-32"/>
       <use xlink:href="#DejaVuSans-30" x="63.623047"/>
      </g>
     </g>
    </g>
    <g id="text_12">
     <!-- Temperatures, $θ$ / [°C] -->
     <g transform="translate(28.105 143.55) rotate(-90) scale(0.1 -0.1)">
      <defs>
       <path id="DejaVuSans-54" d="M -19 4666 
L 3928 4666 
L 3928 4134 
L 2272 4134 
L 2272 0 
L 1638 0 
L 1638 4134 
L -19 4134 
L -19 4666 
z
" transform="scale(0.015625)"/>
       <path id="DejaVuSans-65" d="M 3597 1894 
L 3597 1613 
L 953 1613 
Q 991 1019 1311 708 
Q 1631 397 2203 397 
Q 2534 397 2845 478 
Q 3156 559 3463 722 
L 3463 178 
Q 3153 47 2828 -22 
Q 2503 -91 2169 -91 
Q 1331 -91 842 396 
Q 353 884 353 1716 
Q 353 2575 817 3079 
Q 1281 3584 2069 3584 
Q 2775 3584 3186 3129 
Q 3597 2675 3597 1894 
z
M 3022 2063 
Q 3016 2534 2758 2815 
Q 2500 3097 2075 3097 
Q 1594 3097 1305 2825 
Q 1016 2553 972 2059 
L 3022 2063 
z
" transform="scale(0.015625)"/>
       <path id="DejaVuSans-6d" d="M 3328 2828 
Q 3544 3216 3844 3400 
Q 4144 3584 4550 3584 
Q 5097 3584 5394 3201 
Q 5691 2819 5691 2113 
L 5691 0 
L 5113 0 
L 5113 2094 
Q 5113 2597 4934 2840 
Q 4756 3084 4391 3084 
Q 3944 3084 3684 2787 
Q 3425 2491 3425 1978 
L 3425 0 
L 2847 0 
L 2847 2094 
Q 2847 2600 2669 2842 
Q 2491 3084 2119 3084 
Q 1678 3084 1418 2786 
Q 1159 2488 1159 1978 
L 1159 0 
L 581 0 
L 581 3500 
L 1159 3500 
L 1159 2956 
Q 1356 3278 1631 3431 
Q 1906 3584 2284 3584 
Q 2666 3584 2933 3390 
Q 3200 3197 3328 2828 
z
" transform="scale(0.015625)"/>
       <path id="DejaVuSans-70" d="M 1159 525 
L 1159 -1331 
L 581 -1331 
L 581 3500 
L 1159 3500 
L 1159 2969 
Q 1341 3281 1617 3432 
Q 1894 3584 2278 3584 
Q 2916 3584 3314 3078 
Q 3713 2572 3713 1747 
Q 3713 922 3314 415 
Q 2916 -91 2278 -91 
Q 1894 -91 1617 61 
Q 1341 213 1159 525 
z
M 3116 1747 
Q 3116 2381 2855 2742 
Q 2594 3103 2138 3103 
Q 1681 3103 1420 2742 
Q 1159 2381 1159 1747 
Q 1159 1113 1420 752 
Q 1681 391 2138 391 
Q 2594 391 2855 752 
Q 3116 1113 3116 1747 
z
" transform="scale(0.015625)"/>
       <path id="DejaVuSans-72" d="M 2631 2963 
Q 2534 3019 2420 3045 
Q 2306 3072 2169 3072 
Q 1681 3072 1420 2755 
Q 1159 2438 1159 1844 
L 1159 0 
L 581 0 
L 581 3500 
L 1159 3500 
L 1159 2956 
Q 1341 3275 1631 3429 
Q 1922 3584 2338 3584 
Q 2397 3584 2469 3576 
Q 2541 3569 2628 3553 
L 2631 2963 
z
" transform="scale(0.015625)"/>
       <path id="DejaVuSans-61" d="M 2194 1759 
Q 1497 1759 1228 1600 
Q 959 1441 959 1056 
Q 959 750 1161 570 
Q 1363 391 1709 391 
Q 2188 391 2477 730 
Q 2766 1069 2766 1631 
L 2766 1759 
L 2194 1759 
z
M 3341 1997 
L 3341 0 
L 2766 0 
L 2766 531 
Q 2569 213 2275 61 
Q 1981 -91 1556 -91 
Q 1019 -91 701 211 
Q 384 513 384 1019 
Q 384 1609 779 1909 
Q 1175 2209 1959 2209 
L 2766 2209 
L 2766 2266 
Q 2766 2663 2505 2880 
Q 2244 3097 1772 3097 
Q 1472 3097 1187 3025 
Q 903 2953 641 2809 
L 641 3341 
Q 956 3463 1253 3523 
Q 1550 3584 1831 3584 
Q 2591 3584 2966 3190 
Q 3341 2797 3341 1997 
z
" transform="scale(0.015625)"/>
       <path id="DejaVuSans-74" d="M 1172 4494 
L 1172 3500 
L 2356 3500 
L 2356 3053 
L 1172 3053 
L 1172 1153 
Q 1172 725 1289 603 
Q 1406 481 1766 481 
L 2356 481 
L 2356 0 
L 1766 0 
Q 1100 0 847 248 
Q 594 497 594 1153 
L 594 3053 
L 172 3053 
L 172 3500 
L 594 3500 
L 594 4494 
L 1172 4494 
z
" transform="scale(0.015625)"/>
       <path id="DejaVuSans-75" d="M 544 1381 
L 544 3500 
L 1119 3500 
L 1119 1403 
Q 1119 906 1312 657 
Q 1506 409 1894 409 
Q 2359 409 2629 706 
Q 2900 1003 2900 1516 
L 2900 3500 
L 3475 3500 
L 3475 0 
L 2900 0 
L 2900 538 
Q 2691 219 2414 64 
Q 2138 -91 1772 -91 
Q 1169 -91 856 284 
Q 544 659 544 1381 
z
M 1991 3584 
L 1991 3584 
z
" transform="scale(0.015625)"/>
       <path id="DejaVuSans-73" d="M 2834 3397 
L 2834 2853 
Q 2591 2978 2328 3040 
Q 2066 3103 1784 3103 
Q 1356 3103 1142 2972 
Q 928 2841 928 2578 
Q 928 2378 1081 2264 
Q 1234 2150 1697 2047 
L 1894 2003 
Q 2506 1872 2764 1633 
Q 3022 1394 3022 966 
Q 3022 478 2636 193 
Q 2250 -91 1575 -91 
Q 1294 -91 989 -36 
Q 684 19 347 128 
L 347 722 
Q 666 556 975 473 
Q 1284 391 1588 391 
Q 1994 391 2212 530 
Q 2431 669 2431 922 
Q 2431 1156 2273 1281 
Q 2116 1406 1581 1522 
L 1381 1569 
Q 847 1681 609 1914 
Q 372 2147 372 2553 
Q 372 3047 722 3315 
Q 1072 3584 1716 3584 
Q 2034 3584 2315 3537 
Q 2597 3491 2834 3397 
z
" transform="scale(0.015625)"/>
       <path id="DejaVuSans-2c" d="M 750 794 
L 1409 794 
L 1409 256 
L 897 -744 
L 494 -744 
L 750 256 
L 750 794 
z
" transform="scale(0.015625)"/>
       <path id="DejaVuSans-20" transform="scale(0.015625)"/>
       <path id="DejaVuSans-Oblique-3b8" d="M 2913 2219 
L 925 2219 
Q 791 1284 928 888 
Q 1100 400 1566 400 
Q 2034 400 2391 891 
Q 2703 1322 2913 2219 
z
M 3009 2750 
Q 3094 3638 2984 3950 
Q 2813 4444 2353 4444 
Q 1875 4444 1525 3956 
Q 1250 3563 1034 2750 
L 3009 2750 
z
M 2444 4913 
Q 3194 4913 3494 4250 
Q 3794 3591 3566 2422 
Q 3341 1256 2781 594 
Q 2225 -72 1475 -72 
Q 722 -72 425 594 
Q 128 1256 353 2422 
Q 581 3591 1134 4250 
Q 1691 4913 2444 4913 
z
" transform="scale(0.015625)"/>
       <path id="DejaVuSans-2f" d="M 1625 4666 
L 2156 4666 
L 531 -594 
L 0 -594 
L 1625 4666 
z
" transform="scale(0.015625)"/>
       <path id="DejaVuSans-5b" d="M 550 4863 
L 1875 4863 
L 1875 4416 
L 1125 4416 
L 1125 -397 
L 1875 -397 
L 1875 -844 
L 550 -844 
L 550 4863 
z
" transform="scale(0.015625)"/>
       <path id="DejaVuSans-b0" d="M 1600 4347 
Q 1350 4347 1178 4173 
Q 1006 4000 1006 3750 
Q 1006 3503 1178 3333 
Q 1350 3163 1600 3163 
Q 1850 3163 2022 3333 
Q 2194 3503 2194 3750 
Q 2194 3997 2020 4172 
Q 1847 4347 1600 4347 
z
M 1600 4750 
Q 1800 4750 1984 4673 
Q 2169 4597 2303 4453 
Q 2447 4313 2519 4134 
Q 2591 3956 2591 3750 
Q 2591 3338 2302 3052 
Q 2013 2766 1594 2766 
Q 1172 2766 890 3047 
Q 609 3328 609 3750 
Q 609 4169 896 4459 
Q 1184 4750 1600 4750 
z
" transform="scale(0.015625)"/>
       <path id="DejaVuSans-43" d="M 4122 4306 
L 4122 3641 
Q 3803 3938 3442 4084 
Q 3081 4231 2675 4231 
Q 1875 4231 1450 3742 
Q 1025 3253 1025 2328 
Q 1025 1406 1450 917 
Q 1875 428 2675 428 
Q 3081 428 3442 575 
Q 3803 722 4122 1019 
L 4122 359 
Q 3791 134 3420 21 
Q 3050 -91 2638 -91 
Q 1578 -91 968 557 
Q 359 1206 359 2328 
Q 359 3453 968 4101 
Q 1578 4750 2638 4750 
Q 3056 4750 3426 4639 
Q 3797 4528 4122 4306 
z
" transform="scale(0.015625)"/>
       <path id="DejaVuSans-5d" d="M 1947 4863 
L 1947 -844 
L 622 -844 
L 622 -397 
L 1369 -397 
L 1369 4416 
L 622 4416 
L 622 4863 
L 1947 4863 
z
" transform="scale(0.015625)"/>
      </defs>
      <use xlink:href="#DejaVuSans-54" transform="translate(0 0.234375)"/>
      <use xlink:href="#DejaVuSans-65" transform="translate(61.083984 0.234375)"/>
      <use xlink:href="#DejaVuSans-6d" transform="translate(122.607422 0.234375)"/>
      <use xlink:href="#DejaVuSans-70" transform="translate(220.019531 0.234375)"/>
      <use xlink:href="#DejaVuSans-65" transform="translate(283.496094 0.234375)"/>
      <use xlink:href="#DejaVuSans-72" transform="translate(345.019531 0.234375)"/>
      <use xlink:href="#DejaVuSans-61" transform="translate(386.132812 0.234375)"/>
      <use xlink:href="#DejaVuSans-74" transform="translate(447.412109 0.234375)"/>
      <use xlink:href="#DejaVuSans-75" transform="translate(486.621094 0.234375)"/>
      <use xlink:href="#DejaVuSans-72" transform="translate(550 0.234375)"/>
      <use xlink:href="#DejaVuSans-65" transform="translate(591.113281 0.234375)"/>
      <use xlink:href="#DejaVuSans-73" transform="translate(652.636719 0.234375)"/>
      <use xlink:href="#DejaVuSans-2c" transform="translate(704.736328 0.234375)"/>
      <use xlink:href="#DejaVuSans-20" transform="translate(736.523438 0.234375)"/>
      <use xlink:href="#DejaVuSans-Oblique-3b8" transform="translate(768.310547 0.234375)"/>
      <use xlink:href="#DejaVuSans-20" transform="translate(829.492188 0.234375)"/>
      <use xlink:href="#DejaVuSans-2f" transform="translate(861.279297 0.234375)"/>
      <use xlink:href="#DejaVuSans-20" transform="translate(894.970703 0.234375)"/>
      <use xlink:href="#DejaVuSans-5b" transform="translate(926.757812 0.234375)"/>
      <use xlink:href="#DejaVuSans-b0" transform="translate(965.771484 0.234375)"/>
      <use xlink:href="#DejaVuSans-43" transform="translate(1015.771484 0.234375)"/>
      <use xlink:href="#DejaVuSans-5d" transform="translate(1085.595703 0.234375)"/>
     </g>
    </g>
   </g>
   <g id="line2d_12">
    <path d="M 71.933182 91.3058 
L 74.433624 85.018788 
L 76.73403 73.895612 
L 76.76737 74.056818 
L 79.234472 85.502404 
L 81.568218 85.583007 
L 84.035321 91.789416 
L 86.435745 102.912592 
L 91.336611 103.009315 
L 93.637018 104.024909 
L 96.170799 102.912592 
L 98.371188 102.969014 
L 100.938308 107.120054 
L 103.305393 108.715988 
L 105.739157 108.619265 
L 108.039563 107.60367 
L 110.573344 108.715988 
L 112.873751 108.812711 
L 115.274175 110.682694 
L 117.541242 114.519384 
L 117.574582 114.438781 
L 120.041684 108.715988 
L 122.342091 108.715988 
L 124.875872 85.179993 
L 127.142939 79.699008 
L 127.242957 79.74737 
L 129.643381 80.811326 
L 132.177162 79.699008 
L 134.777622 79.594225 
L 136.978011 79.17509 
L 139.145061 79.699008 
L 141.712181 91.628211 
L 144.112605 96.029119 
L 146.379673 97.189799 
L 148.846775 102.912592 
L 151.180521 102.831989 
L 153.647624 97.109196 
L 163.182642 97.189799 
L 165.649745 102.912592 
L 170.417254 102.993195 
L 175.284781 108.715988 
L 177.585188 108.635385 
L 182.452715 96.62558 
L 184.853139 85.502404 
L 187.186885 85.421801 
L 189.653987 79.699008 
L 194.388157 79.779611 
L 211.257806 120.806396 
L 213.65823 131.929572 
L 218.3924 132.010174 
L 223.259927 143.536364 
L 237.595794 143.455761 
L 242.463321 131.445955 
L 247.364187 108.232372 
L 249.564576 102.912592 
L 249.597915 102.993195 
L 259.26629 126.126176 
L 261.566697 126.126176 
L 264.067139 137.732968 
L 266.367545 137.732968 
L 273.668836 102.912592 
L 285.670957 102.815869 
L 288.271417 100.155979 
L 290.505145 97.109196 
L 292.805551 97.028593 
L 297.673078 85.502404 
L 304.807673 85.421801 
L 307.274775 79.699008 
L 309.608521 79.779611 
L 314.542726 91.990923 
L 317.243204 102.638543 
L 319.676967 109.925029 
L 321.577303 114.519384 
L 321.610642 114.438781 
L 324.077745 108.715988 
L 326.411491 108.796591 
L 329.378682 115.680063 
L 331.345696 119.242703 
L 333.812799 120.32278 
L 336.413258 120.427563 
L 338.613647 120.846697 
L 340.814036 120.403383 
L 343.181121 126.126176 
L 343.21446 126.045573 
L 345.581545 120.32278 
L 345.614885 120.483985 
L 347.98197 131.929572 
L 348.048648 131.768366 
L 350.449072 125.707042 
L 354.216405 102.719145 
L 355.850027 93.885087 
L 359.850734 75.088532 
L 359.984091 74.475952 
L 360.050769 74.621037 
L 362.384515 79.699008 
L 362.417854 79.618405 
L 364.951636 73.774708 
L 367.185364 72.154593 
L 367.218703 72.259377 
L 369.685806 79.699008 
L 371.986212 79.699008 
L 374.519993 94.368703 
L 376.920418 97.109196 
L 379.187485 97.109196 
L 382.054658 108.441939 
L 384.488422 115.728425 
L 386.388758 120.32278 
L 386.455436 120.258298 
L 388.789182 118.001421 
L 388.822521 118.114265 
L 391.589677 127.093408 
L 393.59003 131.929572 
L 393.656709 131.832848 
L 395.990455 128.447534 
L 396.023794 128.576498 
L 398.490896 137.732968 
L 400.824642 137.668485 
L 403.358423 133.009648 
L 405.692169 131.784487 
L 410.493018 125.013858 
L 413.026799 126.126176 
L 415.260527 126.029452 
L 417.994343 122.257245 
L 420.094715 120.080972 
L 422.495139 114.519384 
L 427.229309 114.599987 
L 430.1965 121.483459 
L 431.996818 124.965497 
L 431.996818 124.965497 
" clip-path="url(#p5385f4fbc1)" style="fill: none; stroke: #1f77b4; stroke-width: 1.5; stroke-linecap: square"/>
   </g>
   <g id="line2d_13">
    <path d="M 71.933182 33.27184 
L 71.966521 33.714264 
L 72.033199 33.694821 
L 72.066539 33.557293 
L 72.133217 33.646933 
L 72.299913 33.831773 
L 72.599966 34.048024 
L 73.533465 34.596279 
L 74.466963 34.923681 
L 75.03373 34.852173 
L 75.90055 34.531301 
L 77.100762 34.045425 
L 77.934242 34.296905 
L 78.867741 34.842891 
L 79.601204 35.233761 
L 81.134808 35.695817 
L 85.102176 36.756368 
L 87.93601 37.465463 
L 90.369774 37.750993 
L 94.937247 38.01308 
L 95.970763 38.033325 
L 96.237477 40.440537 
L 98.371188 59.057372 
L 98.404527 58.853822 
L 98.471205 58.909668 
L 98.571223 59.001264 
L 98.604562 58.974031 
L 98.804598 59.030116 
L 99.671418 59.208493 
L 102.57193 59.652378 
L 105.639139 59.895275 
L 111.60686 60.049114 
L 112.773733 60.072422 
L 113.040447 57.676768 
L 115.140818 39.46191 
L 115.174157 39.170681 
L 115.240836 39.215848 
L 115.274175 39.326954 
L 115.340854 39.295347 
L 115.50755 39.240784 
L 115.874281 39.207303 
L 117.707939 39.12688 
L 120.541773 38.850417 
L 123.042215 38.398449 
L 124.375784 37.818173 
L 126.542833 36.827658 
L 128.276473 36.242114 
L 130.310166 35.821348 
L 133.57741 35.418857 
L 135.411067 35.349863 
L 137.511439 35.524548 
L 139.711827 35.979364 
L 141.545485 36.616462 
L 142.645679 36.940134 
L 144.946086 37.441921 
L 149.346864 38.024388 
L 151.913984 38.182684 
L 153.580945 38.121353 
L 153.847659 40.512248 
L 155.98137 59.031906 
L 156.014709 58.82643 
L 156.081387 58.87904 
L 156.181405 58.965603 
L 156.214744 58.936555 
L 156.414779 58.981574 
L 157.214921 59.095015 
L 159.948737 59.313811 
L 170.383915 59.809073 
L 170.650629 57.415207 
L 172.751 39.226326 
L 172.784339 38.935646 
L 172.851018 38.981321 
L 172.884357 39.092581 
L 172.951035 39.061448 
L 173.117731 39.007777 
L 173.484463 38.974883 
L 175.518156 38.871511 
L 178.852078 38.624611 
L 180.352343 38.276662 
L 181.78593 37.58868 
L 184.052997 36.466264 
L 185.119853 35.845624 
L 186.586779 34.430393 
L 187.82033 33.280045 
L 189.587309 32.069127 
L 191.654341 31.773264 
L 192.521161 31.917211 
L 193.788051 32.381848 
L 194.954924 33.024795 
L 196.42185 34.146899 
L 197.688741 35.07668 
L 199.689094 36.276768 
L 201.489412 36.982414 
L 203.589784 37.570395 
L 207.057063 38.294226 
L 211.191127 39.023334 
L 211.457841 41.47814 
L 213.591551 60.562393 
L 213.624891 60.364083 
L 213.691569 60.432758 
L 213.791587 60.542821 
L 213.824926 60.521193 
L 214.058301 60.6265 
L 217.09217 61.333784 
L 225.593673 62.404619 
L 227.994097 62.530438 
L 228.260811 60.138023 
L 230.394521 41.620554 
L 230.42786 41.826233 
L 230.494539 41.774037 
L 230.594556 41.688124 
L 230.627896 41.717396 
L 230.827931 41.673793 
L 231.628072 41.567094 
L 234.461907 41.362178 
L 238.62931 41.060725 
L 240.229593 40.740746 
L 241.296448 40.143673 
L 242.529999 39.221295 
L 243.896907 37.586062 
L 245.49719 35.619677 
L 246.997455 34.371375 
L 247.597561 34.055874 
L 248.597738 33.80732 
L 249.664593 33.764886 
L 250.798127 34.077926 
L 251.998339 34.66905 
L 253.598622 35.751756 
L 256.999223 38.172205 
L 258.83288 38.986787 
L 260.299806 39.418401 
L 265.400708 40.44509 
L 267.167687 40.580148 
L 268.801309 40.441129 
L 269.068023 42.804423 
L 271.001698 59.255529 
L 271.201733 60.964445 
L 271.268412 60.907153 
L 271.301751 60.790056 
L 271.368429 60.809458 
L 271.501786 60.821393 
L 271.7685 60.81039 
L 273.102069 60.645113 
L 275.63585 60.338844 
L 279.269826 60.174798 
L 285.604279 60.097348 
L 285.870992 57.69055 
L 288.004703 39.041778 
L 288.038042 39.245002 
L 288.104721 39.188052 
L 288.204738 39.094908 
L 288.238077 39.121718 
L 288.438113 39.06316 
L 289.271593 38.885921 
L 292.305463 38.408682 
L 293.172283 38.194629 
L 294.305816 37.574326 
L 295.906099 36.426604 
L 301.840481 31.932655 
L 302.873997 31.438869 
L 304.207566 31.13704 
L 305.174404 31.10081 
L 306.407955 31.361281 
L 307.808203 31.875174 
L 309.441825 32.744675 
L 311.075447 33.84385 
L 313.775924 35.695398 
L 315.309529 36.519752 
L 317.509918 37.40453 
L 320.010359 38.138262 
L 322.344105 38.606294 
L 324.177763 38.684707 
L 326.411491 38.713499 
L 326.678205 41.125867 
L 328.811915 59.870525 
L 328.845254 59.668916 
L 328.911933 59.729471 
L 329.01195 59.827981 
L 329.04529 59.802897 
L 329.245325 59.87187 
L 330.078806 60.090328 
L 332.445891 60.549766 
L 335.179707 60.826573 
L 339.78052 61.016818 
L 342.981086 61.183949 
L 343.21446 61.207872 
L 343.481174 58.820156 
L 345.614885 40.221764 
L 345.648224 40.428225 
L 345.714902 40.374966 
L 345.81492 40.288282 
L 345.848259 40.317899 
L 346.048295 40.277259 
L 346.715079 40.22197 
L 350.715786 39.979679 
L 351.649285 39.422852 
L 352.882836 38.417304 
L 354.516458 36.657347 
L 356.783525 34.158351 
L 358.450487 32.600132 
L 360.117448 31.381808 
L 360.750893 31.219874 
L 361.651052 31.194989 
L 362.684568 31.395519 
L 364.151494 31.960312 
L 365.885134 32.870106 
L 370.085876 35.237628 
L 372.052891 35.978254 
L 376.720382 37.390851 
L 378.720736 37.663817 
L 381.12116 38.002703 
L 384.021673 38.573532 
L 384.288386 41.027803 
L 386.422097 60.003375 
L 386.455436 59.80289 
L 386.522114 59.866629 
L 386.622132 59.969297 
L 386.655471 59.945284 
L 386.855507 60.019565 
L 387.58897 60.21075 
L 389.989394 60.623998 
L 395.056956 61.441216 
L 398.157504 61.733401 
L 400.357893 61.985343 
L 400.824642 62.020225 
L 401.091356 59.63017 
L 403.225066 41.041288 
L 403.258406 41.245536 
L 403.325084 41.189903 
L 403.425102 41.098873 
L 403.458441 41.126527 
L 403.658476 41.073061 
L 404.458618 40.928973 
L 409.626198 40.234589 
L 413.526887 39.775778 
L 418.794485 39.19872 
L 424.728867 38.153616 
L 425.629026 38.219995 
L 427.529362 38.56588 
L 431.996818 39.572055 
L 431.996818 39.572055 
" clip-path="url(#p5385f4fbc1)" style="fill: none; stroke: #ff7f0e; stroke-width: 1.5; stroke-linecap: square"/>
   </g>
   <g id="patch_3">
    <path d="M 53.93 149.16 
L 53.93 25.44 
" style="fill: none; stroke: #000000; stroke-width: 0.8; stroke-linejoin: miter; stroke-linecap: square"/>
   </g>
   <g id="patch_4">
    <path d="M 450 149.16 
L 450 25.44 
" style="fill: none; stroke: #000000; stroke-width: 0.8; stroke-linejoin: miter; stroke-linecap: square"/>
   </g>
   <g id="patch_5">
    <path d="M 53.93 149.16 
L 450 149.16 
" style="fill: none; stroke: #000000; stroke-width: 0.8; stroke-linejoin: miter; stroke-linecap: square"/>
   </g>
   <g id="patch_6">
    <path d="M 53.93 25.44 
L 450 25.44 
" style="fill: none; stroke: #000000; stroke-width: 0.8; stroke-linejoin: miter; stroke-linecap: square"/>
   </g>
   <g id="text_13">
    <!-- Simulation for weather -->
    <g transform="translate(183.353125 19.44) scale(0.12 -0.12)">
     <defs>
      <path id="DejaVuSans-53" d="M 3425 4513 
L 3425 3897 
Q 3066 4069 2747 4153 
Q 2428 4238 2131 4238 
Q 1616 4238 1336 4038 
Q 1056 3838 1056 3469 
Q 1056 3159 1242 3001 
Q 1428 2844 1947 2747 
L 2328 2669 
Q 3034 2534 3370 2195 
Q 3706 1856 3706 1288 
Q 3706 609 3251 259 
Q 2797 -91 1919 -91 
Q 1588 -91 1214 -16 
Q 841 59 441 206 
L 441 856 
Q 825 641 1194 531 
Q 1563 422 1919 422 
Q 2459 422 2753 634 
Q 3047 847 3047 1241 
Q 3047 1584 2836 1778 
Q 2625 1972 2144 2069 
L 1759 2144 
Q 1053 2284 737 2584 
Q 422 2884 422 3419 
Q 422 4038 858 4394 
Q 1294 4750 2059 4750 
Q 2388 4750 2728 4690 
Q 3069 4631 3425 4513 
z
" transform="scale(0.015625)"/>
      <path id="DejaVuSans-69" d="M 603 3500 
L 1178 3500 
L 1178 0 
L 603 0 
L 603 3500 
z
M 603 4863 
L 1178 4863 
L 1178 4134 
L 603 4134 
L 603 4863 
z
" transform="scale(0.015625)"/>
      <path id="DejaVuSans-6c" d="M 603 4863 
L 1178 4863 
L 1178 0 
L 603 0 
L 603 4863 
z
" transform="scale(0.015625)"/>
      <path id="DejaVuSans-6f" d="M 1959 3097 
Q 1497 3097 1228 2736 
Q 959 2375 959 1747 
Q 959 1119 1226 758 
Q 1494 397 1959 397 
Q 2419 397 2687 759 
Q 2956 1122 2956 1747 
Q 2956 2369 2687 2733 
Q 2419 3097 1959 3097 
z
M 1959 3584 
Q 2709 3584 3137 3096 
Q 3566 2609 3566 1747 
Q 3566 888 3137 398 
Q 2709 -91 1959 -91 
Q 1206 -91 779 398 
Q 353 888 353 1747 
Q 353 2609 779 3096 
Q 1206 3584 1959 3584 
z
" transform="scale(0.015625)"/>
      <path id="DejaVuSans-6e" d="M 3513 2113 
L 3513 0 
L 2938 0 
L 2938 2094 
Q 2938 2591 2744 2837 
Q 2550 3084 2163 3084 
Q 1697 3084 1428 2787 
Q 1159 2491 1159 1978 
L 1159 0 
L 581 0 
L 581 3500 
L 1159 3500 
L 1159 2956 
Q 1366 3272 1645 3428 
Q 1925 3584 2291 3584 
Q 2894 3584 3203 3211 
Q 3513 2838 3513 2113 
z
" transform="scale(0.015625)"/>
      <path id="DejaVuSans-66" d="M 2375 4863 
L 2375 4384 
L 1825 4384 
Q 1516 4384 1395 4259 
Q 1275 4134 1275 3809 
L 1275 3500 
L 2222 3500 
L 2222 3053 
L 1275 3053 
L 1275 0 
L 697 0 
L 697 3053 
L 147 3053 
L 147 3500 
L 697 3500 
L 697 3744 
Q 697 4328 969 4595 
Q 1241 4863 1831 4863 
L 2375 4863 
z
" transform="scale(0.015625)"/>
      <path id="DejaVuSans-77" d="M 269 3500 
L 844 3500 
L 1563 769 
L 2278 3500 
L 2956 3500 
L 3675 769 
L 4391 3500 
L 4966 3500 
L 4050 0 
L 3372 0 
L 2619 2869 
L 1863 0 
L 1184 0 
L 269 3500 
z
" transform="scale(0.015625)"/>
      <path id="DejaVuSans-68" d="M 3513 2113 
L 3513 0 
L 2938 0 
L 2938 2094 
Q 2938 2591 2744 2837 
Q 2550 3084 2163 3084 
Q 1697 3084 1428 2787 
Q 1159 2491 1159 1978 
L 1159 0 
L 581 0 
L 581 4863 
L 1159 4863 
L 1159 2956 
Q 1366 3272 1645 3428 
Q 1925 3584 2291 3584 
Q 2894 3584 3203 3211 
Q 3513 2838 3513 2113 
z
" transform="scale(0.015625)"/>
     </defs>
     <use xlink:href="#DejaVuSans-53"/>
     <use xlink:href="#DejaVuSans-69" x="63.476562"/>
     <use xlink:href="#DejaVuSans-6d" x="91.259766"/>
     <use xlink:href="#DejaVuSans-75" x="188.671875"/>
     <use xlink:href="#DejaVuSans-6c" x="252.050781"/>
     <use xlink:href="#DejaVuSans-61" x="279.833984"/>
     <use xlink:href="#DejaVuSans-74" x="341.113281"/>
     <use xlink:href="#DejaVuSans-69" x="380.322266"/>
     <use xlink:href="#DejaVuSans-6f" x="408.105469"/>
     <use xlink:href="#DejaVuSans-6e" x="469.287109"/>
     <use xlink:href="#DejaVuSans-20" x="532.666016"/>
     <use xlink:href="#DejaVuSans-66" x="564.453125"/>
     <use xlink:href="#DejaVuSans-6f" x="599.658203"/>
     <use xlink:href="#DejaVuSans-72" x="660.839844"/>
     <use xlink:href="#DejaVuSans-20" x="701.953125"/>
     <use xlink:href="#DejaVuSans-77" x="733.740234"/>
     <use xlink:href="#DejaVuSans-65" x="815.527344"/>
     <use xlink:href="#DejaVuSans-61" x="877.050781"/>
     <use xlink:href="#DejaVuSans-74" x="938.330078"/>
     <use xlink:href="#DejaVuSans-68" x="977.539062"/>
     <use xlink:href="#DejaVuSans-65" x="1040.917969"/>
     <use xlink:href="#DejaVuSans-72" x="1102.441406"/>
    </g>
   </g>
   <g id="legend_1">
    <g id="patch_7">
     <path d="M 377.2 62.79625 
L 443 62.79625 
Q 445 62.79625 445 60.79625 
L 445 32.44 
Q 445 30.44 443 30.44 
L 377.2 30.44 
Q 375.2 30.44 375.2 32.44 
L 375.2 60.79625 
Q 375.2 62.79625 377.2 62.79625 
z
" style="fill: #ffffff; opacity: 0.8; stroke: #cccccc; stroke-linejoin: miter"/>
    </g>
    <g id="line2d_14">
     <path d="M 379.2 38.538437 
L 389.2 38.538437 
L 399.2 38.538437 
" style="fill: none; stroke: #1f77b4; stroke-width: 1.5; stroke-linecap: square"/>
    </g>
    <g id="text_14">
     <!-- $θ_{outdoor}$ -->
     <g transform="translate(407.2 42.038437) scale(0.1 -0.1)">
      <defs>
       <path id="DejaVuSans-Oblique-6f" d="M 1625 -91 
Q 1009 -91 651 289 
Q 294 669 294 1325 
Q 294 1706 417 2101 
Q 541 2497 738 2766 
Q 1047 3184 1428 3384 
Q 1809 3584 2291 3584 
Q 2888 3584 3255 3212 
Q 3622 2841 3622 2241 
Q 3622 1825 3500 1412 
Q 3378 1000 3181 728 
Q 2875 309 2494 109 
Q 2113 -91 1625 -91 
z
M 891 1344 
Q 891 869 1089 633 
Q 1288 397 1691 397 
Q 2269 397 2648 901 
Q 3028 1406 3028 2181 
Q 3028 2634 2825 2865 
Q 2622 3097 2228 3097 
Q 1903 3097 1650 2945 
Q 1397 2794 1197 2484 
Q 1050 2253 970 1956 
Q 891 1659 891 1344 
z
" transform="scale(0.015625)"/>
       <path id="DejaVuSans-Oblique-75" d="M 428 1388 
L 838 3500 
L 1416 3500 
L 1006 1409 
Q 975 1256 961 1147 
Q 947 1038 947 966 
Q 947 700 1109 554 
Q 1272 409 1569 409 
Q 2031 409 2368 721 
Q 2706 1034 2809 1563 
L 3194 3500 
L 3769 3500 
L 3091 0 
L 2516 0 
L 2631 550 
Q 2388 244 2052 76 
Q 1716 -91 1338 -91 
Q 878 -91 622 161 
Q 366 413 366 863 
Q 366 956 381 1097 
Q 397 1238 428 1388 
z
" transform="scale(0.015625)"/>
       <path id="DejaVuSans-Oblique-74" d="M 2706 3500 
L 2619 3053 
L 1472 3053 
L 1100 1153 
Q 1081 1047 1072 975 
Q 1063 903 1063 863 
Q 1063 663 1183 572 
Q 1303 481 1569 481 
L 2150 481 
L 2053 0 
L 1503 0 
Q 991 0 739 200 
Q 488 400 488 806 
Q 488 878 497 964 
Q 506 1050 525 1153 
L 897 3053 
L 409 3053 
L 500 3500 
L 978 3500 
L 1172 4494 
L 1747 4494 
L 1556 3500 
L 2706 3500 
z
" transform="scale(0.015625)"/>
       <path id="DejaVuSans-Oblique-64" d="M 2675 525 
Q 2444 222 2128 65 
Q 1813 -91 1428 -91 
Q 903 -91 598 267 
Q 294 625 294 1247 
Q 294 1766 478 2236 
Q 663 2706 1013 3078 
Q 1244 3325 1534 3454 
Q 1825 3584 2144 3584 
Q 2481 3584 2739 3421 
Q 2997 3259 3138 2956 
L 3513 4863 
L 4091 4863 
L 3144 0 
L 2566 0 
L 2675 525 
z
M 891 1350 
Q 891 897 1095 644 
Q 1300 391 1663 391 
Q 1931 391 2161 520 
Q 2391 650 2566 903 
Q 2750 1166 2856 1509 
Q 2963 1853 2963 2188 
Q 2963 2622 2758 2865 
Q 2553 3109 2194 3109 
Q 1922 3109 1687 2981 
Q 1453 2853 1288 2613 
Q 1106 2353 998 2009 
Q 891 1666 891 1350 
z
" transform="scale(0.015625)"/>
       <path id="DejaVuSans-Oblique-72" d="M 2853 2969 
Q 2766 3016 2653 3041 
Q 2541 3066 2413 3066 
Q 1953 3066 1609 2717 
Q 1266 2369 1153 1784 
L 800 0 
L 225 0 
L 909 3500 
L 1484 3500 
L 1375 2956 
Q 1603 3259 1920 3421 
Q 2238 3584 2597 3584 
Q 2691 3584 2781 3573 
Q 2872 3563 2963 3538 
L 2853 2969 
z
" transform="scale(0.015625)"/>
      </defs>
      <use xlink:href="#DejaVuSans-Oblique-3b8" transform="translate(0 0.234375)"/>
      <use xlink:href="#DejaVuSans-Oblique-6f" transform="translate(61.181641 -16.171875) scale(0.7)"/>
      <use xlink:href="#DejaVuSans-Oblique-75" transform="translate(104.008789 -16.171875) scale(0.7)"/>
      <use xlink:href="#DejaVuSans-Oblique-74" transform="translate(148.374023 -16.171875) scale(0.7)"/>
      <use xlink:href="#DejaVuSans-Oblique-64" transform="translate(175.820312 -16.171875) scale(0.7)"/>
      <use xlink:href="#DejaVuSans-Oblique-6f" transform="translate(220.253906 -16.171875) scale(0.7)"/>
      <use xlink:href="#DejaVuSans-Oblique-6f" transform="translate(263.081055 -16.171875) scale(0.7)"/>
      <use xlink:href="#DejaVuSans-Oblique-72" transform="translate(305.908203 -16.171875) scale(0.7)"/>
     </g>
    </g>
    <g id="line2d_15">
     <path d="M 379.2 53.216563 
L 389.2 53.216563 
L 399.2 53.216563 
" style="fill: none; stroke: #ff7f0e; stroke-width: 1.5; stroke-linecap: square"/>
    </g>
    <g id="text_15">
     <!-- $θ_{indoor}$ -->
     <g transform="translate(407.2 56.716563) scale(0.1 -0.1)">
      <defs>
       <path id="DejaVuSans-Oblique-69" d="M 1172 4863 
L 1747 4863 
L 1606 4134 
L 1031 4134 
L 1172 4863 
z
M 909 3500 
L 1484 3500 
L 800 0 
L 225 0 
L 909 3500 
z
" transform="scale(0.015625)"/>
       <path id="DejaVuSans-Oblique-6e" d="M 3566 2113 
L 3156 0 
L 2578 0 
L 2988 2091 
Q 3016 2238 3031 2350 
Q 3047 2463 3047 2528 
Q 3047 2791 2881 2937 
Q 2716 3084 2419 3084 
Q 1956 3084 1622 2776 
Q 1288 2469 1184 1941 
L 800 0 
L 225 0 
L 903 3500 
L 1478 3500 
L 1363 2950 
Q 1603 3253 1940 3418 
Q 2278 3584 2650 3584 
Q 3113 3584 3367 3334 
Q 3622 3084 3622 2631 
Q 3622 2519 3608 2391 
Q 3594 2263 3566 2113 
z
" transform="scale(0.015625)"/>
      </defs>
      <use xlink:href="#DejaVuSans-Oblique-3b8" transform="translate(0 0.234375)"/>
      <use xlink:href="#DejaVuSans-Oblique-69" transform="translate(61.181641 -16.171875) scale(0.7)"/>
      <use xlink:href="#DejaVuSans-Oblique-6e" transform="translate(80.629883 -16.171875) scale(0.7)"/>
      <use xlink:href="#DejaVuSans-Oblique-64" transform="translate(124.995117 -16.171875) scale(0.7)"/>
      <use xlink:href="#DejaVuSans-Oblique-6f" transform="translate(169.428711 -16.171875) scale(0.7)"/>
      <use xlink:href="#DejaVuSans-Oblique-6f" transform="translate(212.255859 -16.171875) scale(0.7)"/>
      <use xlink:href="#DejaVuSans-Oblique-72" transform="translate(255.083008 -16.171875) scale(0.7)"/>
     </g>
    </g>
   </g>
  </g>
  <g id="axes_2">
   <g id="patch_8">
    <path d="M 53.93 300.76 
L 450 300.76 
L 450 177.04 
L 53.93 177.04 
z
" style="fill: #ffffff"/>
   </g>
   <g id="matplotlib.axis_3">
    <g id="xtick_8">
     <g id="line2d_16">
      <g>
       <use xlink:href="#m53694ed4a0" x="71.933182" y="300.76" style="stroke: #000000; stroke-width: 0.8"/>
      </g>
     </g>
     <g id="text_16">
      <!-- 0 -->
      <g transform="translate(68.751932 315.358437) scale(0.1 -0.1)">
       <use xlink:href="#DejaVuSans-30"/>
      </g>
     </g>
    </g>
    <g id="xtick_9">
     <g id="line2d_17">
      <g>
       <use xlink:href="#m53694ed4a0" x="129.543364" y="300.76" style="stroke: #000000; stroke-width: 0.8"/>
      </g>
     </g>
     <g id="text_17">
      <!-- 1 -->
      <g transform="translate(126.362114 315.358437) scale(0.1 -0.1)">
       <use xlink:href="#DejaVuSans-31"/>
      </g>
     </g>
    </g>
    <g id="xtick_10">
     <g id="line2d_18">
      <g>
       <use xlink:href="#m53694ed4a0" x="187.153545" y="300.76" style="stroke: #000000; stroke-width: 0.8"/>
      </g>
     </g>
     <g id="text_18">
      <!-- 2 -->
      <g transform="translate(183.972295 315.358437) scale(0.1 -0.1)">
       <use xlink:href="#DejaVuSans-32"/>
      </g>
     </g>
    </g>
    <g id="xtick_11">
     <g id="line2d_19">
      <g>
       <use xlink:href="#m53694ed4a0" x="244.763727" y="300.76" style="stroke: #000000; stroke-width: 0.8"/>
      </g>
     </g>
     <g id="text_19">
      <!-- 3 -->
      <g transform="translate(241.582477 315.358437) scale(0.1 -0.1)">
       <use xlink:href="#DejaVuSans-33"/>
      </g>
     </g>
    </g>
    <g id="xtick_12">
     <g id="line2d_20">
      <g>
       <use xlink:href="#m53694ed4a0" x="302.373909" y="300.76" style="stroke: #000000; stroke-width: 0.8"/>
      </g>
     </g>
     <g id="text_20">
      <!-- 4 -->
      <g transform="translate(299.192659 315.358437) scale(0.1 -0.1)">
       <use xlink:href="#DejaVuSans-34"/>
      </g>
     </g>
    </g>
    <g id="xtick_13">
     <g id="line2d_21">
      <g>
       <use xlink:href="#m53694ed4a0" x="359.984091" y="300.76" style="stroke: #000000; stroke-width: 0.8"/>
      </g>
     </g>
     <g id="text_21">
      <!-- 5 -->
      <g transform="translate(356.802841 315.358437) scale(0.1 -0.1)">
       <use xlink:href="#DejaVuSans-35"/>
      </g>
     </g>
    </g>
    <g id="xtick_14">
     <g id="line2d_22">
      <g>
       <use xlink:href="#m53694ed4a0" x="417.594273" y="300.76" style="stroke: #000000; stroke-width: 0.8"/>
      </g>
     </g>
     <g id="text_22">
      <!-- 6 -->
      <g transform="translate(414.413023 315.358437) scale(0.1 -0.1)">
       <use xlink:href="#DejaVuSans-36"/>
      </g>
     </g>
    </g>
    <g id="text_23">
     <!-- Time, $t$ / [day] -->
     <g transform="translate(216.465 329.038125) scale(0.1 -0.1)">
      <defs>
       <path id="DejaVuSans-64" d="M 2906 2969 
L 2906 4863 
L 3481 4863 
L 3481 0 
L 2906 0 
L 2906 525 
Q 2725 213 2448 61 
Q 2172 -91 1784 -91 
Q 1150 -91 751 415 
Q 353 922 353 1747 
Q 353 2572 751 3078 
Q 1150 3584 1784 3584 
Q 2172 3584 2448 3432 
Q 2725 3281 2906 2969 
z
M 947 1747 
Q 947 1113 1208 752 
Q 1469 391 1925 391 
Q 2381 391 2643 752 
Q 2906 1113 2906 1747 
Q 2906 2381 2643 2742 
Q 2381 3103 1925 3103 
Q 1469 3103 1208 2742 
Q 947 2381 947 1747 
z
" transform="scale(0.015625)"/>
       <path id="DejaVuSans-79" d="M 2059 -325 
Q 1816 -950 1584 -1140 
Q 1353 -1331 966 -1331 
L 506 -1331 
L 506 -850 
L 844 -850 
Q 1081 -850 1212 -737 
Q 1344 -625 1503 -206 
L 1606 56 
L 191 3500 
L 800 3500 
L 1894 763 
L 2988 3500 
L 3597 3500 
L 2059 -325 
z
" transform="scale(0.015625)"/>
      </defs>
      <use xlink:href="#DejaVuSans-54" transform="translate(0 0.015625)"/>
      <use xlink:href="#DejaVuSans-69" transform="translate(61.083984 0.015625)"/>
      <use xlink:href="#DejaVuSans-6d" transform="translate(88.867188 0.015625)"/>
      <use xlink:href="#DejaVuSans-65" transform="translate(186.279297 0.015625)"/>
      <use xlink:href="#DejaVuSans-2c" transform="translate(247.802734 0.015625)"/>
      <use xlink:href="#DejaVuSans-20" transform="translate(279.589844 0.015625)"/>
      <use xlink:href="#DejaVuSans-Oblique-74" transform="translate(311.376953 0.015625)"/>
      <use xlink:href="#DejaVuSans-20" transform="translate(350.585938 0.015625)"/>
      <use xlink:href="#DejaVuSans-2f" transform="translate(382.373047 0.015625)"/>
      <use xlink:href="#DejaVuSans-20" transform="translate(416.064453 0.015625)"/>
      <use xlink:href="#DejaVuSans-5b" transform="translate(447.851562 0.015625)"/>
      <use xlink:href="#DejaVuSans-64" transform="translate(486.865234 0.015625)"/>
      <use xlink:href="#DejaVuSans-61" transform="translate(550.341797 0.015625)"/>
      <use xlink:href="#DejaVuSans-79" transform="translate(611.621094 0.015625)"/>
      <use xlink:href="#DejaVuSans-5d" transform="translate(670.800781 0.015625)"/>
     </g>
    </g>
   </g>
   <g id="matplotlib.axis_4">
    <g id="ytick_5">
     <g id="line2d_23">
      <g>
       <use xlink:href="#m9c1547fda1" x="53.93" y="288.813686" style="stroke: #000000; stroke-width: 0.8"/>
      </g>
     </g>
     <g id="text_24">
      <!-- 0 -->
      <g transform="translate(40.5675 292.612905) scale(0.1 -0.1)">
       <use xlink:href="#DejaVuSans-30"/>
      </g>
     </g>
    </g>
    <g id="ytick_6">
     <g id="line2d_24">
      <g>
       <use xlink:href="#m9c1547fda1" x="53.93" y="258.903678" style="stroke: #000000; stroke-width: 0.8"/>
      </g>
     </g>
     <g id="text_25">
      <!-- 200 -->
      <g transform="translate(27.8425 262.702897) scale(0.1 -0.1)">
       <use xlink:href="#DejaVuSans-32"/>
       <use xlink:href="#DejaVuSans-30" x="63.623047"/>
       <use xlink:href="#DejaVuSans-30" x="127.246094"/>
      </g>
     </g>
    </g>
    <g id="ytick_7">
     <g id="line2d_25">
      <g>
       <use xlink:href="#m9c1547fda1" x="53.93" y="228.99367" style="stroke: #000000; stroke-width: 0.8"/>
      </g>
     </g>
     <g id="text_26">
      <!-- 400 -->
      <g transform="translate(27.8425 232.792889) scale(0.1 -0.1)">
       <use xlink:href="#DejaVuSans-34"/>
       <use xlink:href="#DejaVuSans-30" x="63.623047"/>
       <use xlink:href="#DejaVuSans-30" x="127.246094"/>
      </g>
     </g>
    </g>
    <g id="ytick_8">
     <g id="line2d_26">
      <g>
       <use xlink:href="#m9c1547fda1" x="53.93" y="199.083662" style="stroke: #000000; stroke-width: 0.8"/>
      </g>
     </g>
     <g id="text_27">
      <!-- 600 -->
      <g transform="translate(27.8425 202.882881) scale(0.1 -0.1)">
       <use xlink:href="#DejaVuSans-36"/>
       <use xlink:href="#DejaVuSans-30" x="63.623047"/>
       <use xlink:href="#DejaVuSans-30" x="127.246094"/>
      </g>
     </g>
    </g>
    <g id="text_28">
     <!-- Heat flows, $q$ / [W] -->
     <g transform="translate(21.7425 285.35) rotate(-90) scale(0.1 -0.1)">
      <defs>
       <path id="DejaVuSans-48" d="M 628 4666 
L 1259 4666 
L 1259 2753 
L 3553 2753 
L 3553 4666 
L 4184 4666 
L 4184 0 
L 3553 0 
L 3553 2222 
L 1259 2222 
L 1259 0 
L 628 0 
L 628 4666 
z
" transform="scale(0.015625)"/>
       <path id="DejaVuSans-Oblique-71" d="M 2669 525 
Q 2438 222 2123 65 
Q 1809 -91 1428 -91 
Q 897 -91 595 267 
Q 294 625 294 1253 
Q 294 1759 480 2231 
Q 666 2703 1013 3078 
Q 1238 3322 1530 3453 
Q 1822 3584 2144 3584 
Q 2531 3584 2781 3431 
Q 3031 3278 3144 2969 
L 3244 3494 
L 3822 3494 
L 2888 -1319 
L 2309 -1319 
L 2669 525 
z
M 891 1338 
Q 891 875 1084 633 
Q 1278 391 1644 391 
Q 2188 391 2572 911 
Q 2956 1431 2956 2175 
Q 2956 2625 2757 2864 
Q 2559 3103 2188 3103 
Q 1916 3103 1684 2976 
Q 1453 2850 1281 2606 
Q 1100 2350 995 2006 
Q 891 1663 891 1338 
z
" transform="scale(0.015625)"/>
       <path id="DejaVuSans-57" d="M 213 4666 
L 850 4666 
L 1831 722 
L 2809 4666 
L 3519 4666 
L 4500 722 
L 5478 4666 
L 6119 4666 
L 4947 0 
L 4153 0 
L 3169 4050 
L 2175 0 
L 1381 0 
L 213 4666 
z
" transform="scale(0.015625)"/>
      </defs>
      <use xlink:href="#DejaVuSans-48" transform="translate(0 0.015625)"/>
      <use xlink:href="#DejaVuSans-65" transform="translate(75.195312 0.015625)"/>
      <use xlink:href="#DejaVuSans-61" transform="translate(136.71875 0.015625)"/>
      <use xlink:href="#DejaVuSans-74" transform="translate(197.998047 0.015625)"/>
      <use xlink:href="#DejaVuSans-20" transform="translate(237.207031 0.015625)"/>
      <use xlink:href="#DejaVuSans-66" transform="translate(268.994141 0.015625)"/>
      <use xlink:href="#DejaVuSans-6c" transform="translate(304.199219 0.015625)"/>
      <use xlink:href="#DejaVuSans-6f" transform="translate(331.982422 0.015625)"/>
      <use xlink:href="#DejaVuSans-77" transform="translate(393.164062 0.015625)"/>
      <use xlink:href="#DejaVuSans-73" transform="translate(474.951172 0.015625)"/>
      <use xlink:href="#DejaVuSans-2c" transform="translate(527.050781 0.015625)"/>
      <use xlink:href="#DejaVuSans-20" transform="translate(558.837891 0.015625)"/>
      <use xlink:href="#DejaVuSans-Oblique-71" transform="translate(590.625 0.015625)"/>
      <use xlink:href="#DejaVuSans-20" transform="translate(654.101562 0.015625)"/>
      <use xlink:href="#DejaVuSans-2f" transform="translate(685.888672 0.015625)"/>
      <use xlink:href="#DejaVuSans-20" transform="translate(719.580078 0.015625)"/>
      <use xlink:href="#DejaVuSans-5b" transform="translate(751.367188 0.015625)"/>
      <use xlink:href="#DejaVuSans-57" transform="translate(790.380859 0.015625)"/>
      <use xlink:href="#DejaVuSans-5d" transform="translate(889.257812 0.015625)"/>
     </g>
    </g>
   </g>
   <g id="line2d_27">
    <path d="M 71.933182 278.135813 
L 74.333606 278.345184 
L 76.73403 243.709782 
L 76.76737 244.251895 
L 79.234472 282.785573 
L 81.601557 283.910937 
L 84.06866 288.220471 
L 86.769137 288.813686 
L 117.741278 288.717725 
L 119.975006 287.583637 
L 122.908858 280.391875 
L 125.4093 273.590992 
L 127.476332 269.010198 
L 129.71006 265.819196 
L 132.210502 264.597601 
L 134.344212 262.775991 
L 134.377551 262.865184 
L 136.911332 269.928581 
L 139.645149 281.418114 
L 141.645503 287.910778 
L 144.245962 288.813686 
L 175.284781 288.720633 
L 177.618527 286.99333 
L 179.985612 281.586478 
L 182.486054 258.706188 
L 184.753121 253.56247 
L 187.286902 203.300512 
L 189.55397 192.997808 
L 189.587309 193.236142 
L 192.12109 212.12317 
L 194.821567 245.249306 
L 196.921939 274.377191 
L 199.255684 287.710132 
L 201.789465 288.813686 
L 233.161677 288.709001 
L 235.262048 288.05472 
L 238.929363 283.077819 
L 239.962879 281.590419 
L 242.49666 245.490388 
L 244.863745 191.875504 
L 247.164152 187.139154 
L 249.897968 213.129484 
L 254.96553 273.008067 
L 256.865866 287.409162 
L 259.366308 288.813686 
L 290.471806 288.713363 
L 292.772212 286.405931 
L 297.039633 231.880299 
L 298.506559 215.141507 
L 300.273538 197.120113 
L 302.373909 182.663636 
L 302.440588 182.824319 
L 304.774333 188.448194 
L 312.409016 275.556033 
L 314.476048 287.609808 
L 317.009829 288.813686 
L 348.081987 288.704639 
L 350.382394 286.196561 
L 353.316246 244.802051 
L 355.416617 212.037137 
L 357.750363 191.221058 
L 359.984091 182.952823 
L 362.651229 208.891296 
L 367.285381 267.666802 
L 369.852502 280.871809 
L 372.119569 287.726125 
L 374.620011 288.813686 
L 405.758848 288.711909 
L 408.25929 287.057304 
L 410.859749 284.059241 
L 413.42687 280.558109 
L 415.460562 278.414974 
L 417.627612 277.190635 
L 420.261411 269.033877 
L 422.395121 264.952561 
L 422.4618 265.018556 
L 424.828885 267.513824 
L 427.429344 281.369821 
L 429.729751 287.824994 
L 431.996818 288.813686 
L 431.996818 288.813686 
" clip-path="url(#pcf3577a314)" style="fill: none; stroke: #1f77b4; stroke-width: 1.5; stroke-linecap: square"/>
   </g>
   <g id="line2d_28">
    <path d="M 71.933182 288.813686 
L 71.966521 287.546909 
L 72.033199 287.602581 
L 72.066539 287.996359 
L 72.099878 287.559954 
L 72.133217 287.739697 
L 72.299913 287.210449 
L 72.43327 286.931248 
L 73.900196 284.557411 
L 74.433624 284.071478 
L 75.300444 284.501554 
L 75.90055 285.207514 
L 76.667352 286.49187 
L 76.834048 286.673244 
L 76.867387 286.644932 
L 77.034083 286.623549 
L 77.60085 286.254022 
L 78.167617 285.554109 
L 78.867741 284.315348 
L 79.467847 283.342673 
L 80.368006 282.461129 
L 81.534879 281.613142 
L 82.468377 280.91145 
L 86.035674 278.040479 
L 87.102529 277.250936 
L 88.36942 276.615644 
L 89.903024 276.105308 
L 92.070074 275.64548 
L 94.83723 275.245923 
L 95.937424 275.181616 
L 96.037442 276.150493 
L 96.070781 275.920526 
L 96.237477 276.59613 
L 96.337495 276.849847 
L 96.904262 278.494254 
L 98.337848 282.288895 
L 98.371188 281.449515 
L 98.437866 281.56305 
L 98.471205 281.87243 
L 98.537884 281.765647 
L 98.637902 281.593568 
L 98.671241 281.626854 
L 98.871276 281.483476 
L 99.504721 281.109228 
L 101.405057 280.174045 
L 103.305393 279.519211 
L 105.239068 279.110563 
L 107.206082 278.908217 
L 112.740394 278.544895 
L 112.840412 277.564775 
L 112.873751 277.790338 
L 113.040447 277.094215 
L 113.173804 276.702793 
L 113.973945 274.329083 
L 115.140818 271.089865 
L 115.174157 271.923731 
L 115.240836 271.794407 
L 115.274175 271.476279 
L 115.340854 271.566781 
L 115.440871 271.713241 
L 115.47421 271.670882 
L 115.640907 271.755769 
L 116.174334 271.891653 
L 117.374546 272.027366 
L 118.341384 272.161639 
L 119.975006 272.61856 
L 122.842179 273.946072 
L 123.67566 274.844448 
L 124.742515 276.353116 
L 125.575996 277.460371 
L 127.309636 279.483095 
L 128.609865 280.551057 
L 129.910095 281.325576 
L 131.643735 282.048745 
L 134.110838 282.811548 
L 134.844301 282.891235 
L 136.17787 282.765364 
L 137.244725 282.476649 
L 138.611633 281.799723 
L 139.778506 281.006551 
L 140.978718 279.86268 
L 142.412305 278.492594 
L 144.045927 277.335477 
L 145.579531 276.609003 
L 150.013648 275.026187 
L 151.580592 274.759026 
L 152.847482 274.814067 
L 153.547606 274.922002 
L 153.647624 275.910323 
L 153.680963 275.685775 
L 153.847659 276.390803 
L 153.981016 276.78742 
L 154.881175 279.454004 
L 155.94803 282.35851 
L 155.98137 281.522429 
L 156.048048 281.64549 
L 156.081387 281.960125 
L 156.148066 281.86298 
L 156.248083 281.705878 
L 156.281423 281.744433 
L 156.448119 281.639477 
L 156.948207 281.438522 
L 158.415133 280.997785 
L 160.348808 280.661741 
L 163.082625 280.430403 
L 164.182819 280.264301 
L 168.850311 279.407171 
L 170.350576 279.299116 
L 170.450593 278.317619 
L 170.483933 278.542447 
L 170.650629 277.843136 
L 170.783986 277.448756 
L 171.584127 275.051697 
L 172.751 271.764407 
L 172.784339 272.596701 
L 172.851018 272.465921 
L 172.884357 272.147354 
L 172.951035 272.236494 
L 173.051053 272.381244 
L 173.084392 272.338482 
L 173.251088 272.421748 
L 173.751177 272.551601 
L 175.018067 272.73103 
L 177.318474 272.990825 
L 178.151955 273.198919 
L 179.418845 273.768525 
L 180.185647 274.297153 
L 181.319181 275.746757 
L 185.153192 281.526972 
L 186.253386 284.502436 
L 187.853669 288.862244 
L 189.387274 291.894657 
L 189.820684 292.478848 
L 190.38745 292.88048 
L 191.054235 293.098492 
L 191.754359 293.090535 
L 192.221108 292.905465 
L 192.921231 292.34126 
L 193.821391 291.319148 
L 194.68821 290.018374 
L 195.721726 287.931087 
L 198.255508 282.584632 
L 199.622416 280.298332 
L 200.855967 278.829921 
L 202.222875 277.539837 
L 203.889837 276.301408 
L 206.090226 274.962294 
L 209.490827 273.182807 
L 211.157788 272.361884 
L 211.257806 273.282464 
L 211.291145 273.035165 
L 211.457841 273.625196 
L 211.557859 273.82572 
L 212.024608 274.925823 
L 213.324838 277.575082 
L 213.558212 278.003206 
L 213.591551 277.140237 
L 213.65823 277.217982 
L 213.691569 277.511415 
L 213.758247 277.369469 
L 213.924944 277.087366 
L 214.058301 276.956681 
L 216.558742 275.163525 
L 217.95899 274.626294 
L 220.359414 273.774927 
L 225.160263 271.957592 
L 227.293973 271.589635 
L 227.960758 271.508925 
L 228.060775 270.524191 
L 228.094114 270.748695 
L 228.260811 270.046985 
L 228.394168 269.652227 
L 229.260987 267.084492 
L 230.361182 264.073577 
L 230.394521 264.909091 
L 230.461199 264.784863 
L 230.494539 264.469629 
L 230.561217 264.565543 
L 230.661235 264.720721 
L 230.694574 264.681505 
L 230.86127 264.78301 
L 231.361359 264.972301 
L 232.794945 265.363539 
L 234.628603 265.67032 
L 237.262402 266.109831 
L 238.462614 266.449165 
L 239.996218 267.123608 
L 240.829699 268.321858 
L 241.829875 270.177831 
L 242.596678 271.977662 
L 243.696872 275.703298 
L 245.563869 282.268706 
L 246.830759 285.305716 
L 247.464205 286.420534 
L 248.197668 287.074413 
L 248.864452 287.367396 
L 249.564576 287.43092 
L 249.864629 287.304966 
L 250.498074 286.820362 
L 251.264876 285.922953 
L 252.198375 284.468915 
L 253.431926 282.068401 
L 256.965884 274.835572 
L 257.966061 273.454064 
L 259.26629 272.006355 
L 260.466503 271.110244 
L 262.000107 270.31271 
L 263.700407 269.199821 
L 264.800602 268.539588 
L 266.16751 268.00203 
L 266.900973 267.88312 
L 267.801132 267.974709 
L 268.76797 268.272845 
L 268.867987 269.286776 
L 268.901327 269.072405 
L 269.068023 269.827695 
L 269.234719 270.367633 
L 270.234896 273.755681 
L 271.168394 276.804803 
L 271.201733 275.989055 
L 271.268412 276.153096 
L 271.301751 276.488376 
L 271.368429 276.432825 
L 271.401769 276.303063 
L 271.468447 276.338857 
L 271.601804 276.383904 
L 271.901857 276.461008 
L 272.835355 276.783915 
L 275.169101 277.670864 
L 277.002758 278.020664 
L 279.603218 278.272521 
L 283.937317 278.43956 
L 285.570939 278.471226 
L 285.670957 277.500977 
L 285.704296 277.730839 
L 285.870992 277.054753 
L 285.97101 276.801456 
L 286.537777 275.167672 
L 287.971364 271.450924 
L 288.004703 272.292814 
L 288.071381 272.182234 
L 288.104721 271.873993 
L 288.171399 271.9837 
L 288.271417 272.159855 
L 288.304756 272.127747 
L 288.504791 272.277702 
L 289.138237 272.66397 
L 290.971894 273.580033 
L 293.105604 274.6344 
L 293.839067 275.690898 
L 294.872583 277.582581 
L 296.439527 280.997848 
L 300.60693 290.444141 
L 302.407248 293.597051 
L 302.974015 294.149925 
L 303.840835 294.749124 
L 304.774333 295.127017 
L 305.007708 295.084636 
L 305.874528 294.675398 
L 306.774687 293.964507 
L 307.674846 292.984796 
L 308.80838 291.362203 
L 310.141949 289.054193 
L 311.675553 285.882791 
L 312.842426 283.56786 
L 314.742762 280.282112 
L 316.376384 278.195479 
L 317.776631 276.725279 
L 319.510271 275.247702 
L 321.343928 273.992899 
L 322.210748 273.581753 
L 323.244264 273.359758 
L 324.977904 273.282835 
L 326.378152 273.233833 
L 326.478169 274.199986 
L 326.511508 273.967877 
L 326.678205 274.633849 
L 326.778222 274.879932 
L 327.31165 276.371725 
L 328.745237 279.893362 
L 328.778576 279.968994 
L 328.811915 279.12124 
L 328.878593 279.221692 
L 328.911933 279.525116 
L 328.978611 279.405206 
L 329.078629 279.213874 
L 329.111968 279.241038 
L 329.312003 279.061481 
L 329.978788 278.561763 
L 331.579071 277.571362 
L 333.045997 276.94821 
L 334.679619 276.485246 
L 336.880008 276.120502 
L 339.880538 275.833926 
L 341.94757 275.619844 
L 343.181121 275.302039 
L 343.281139 274.306857 
L 343.314478 274.530647 
L 343.481174 273.820391 
L 343.614531 273.422816 
L 345.581545 268.071401 
L 345.614885 268.9142 
L 345.681563 268.791938 
L 345.714902 268.475544 
L 345.781581 268.572818 
L 345.881598 268.727661 
L 345.914938 268.687108 
L 346.081634 268.779213 
L 347.98197 268.804796 
L 348.41538 268.803558 
L 349.582253 268.979895 
L 350.482412 269.302349 
L 351.749302 271.405701 
L 352.749479 273.726883 
L 353.649638 276.322386 
L 355.149903 281.30334 
L 356.083402 284.190093 
L 358.083755 289.865446 
L 359.684038 293.447439 
L 360.217465 294.331036 
L 360.88425 294.738866 
L 361.417678 294.798107 
L 362.017784 294.631816 
L 362.651229 294.214581 
L 363.551388 293.305257 
L 364.718261 291.797845 
L 365.918473 289.907315 
L 369.652466 283.755784 
L 370.585965 282.582089 
L 372.019551 281.094928 
L 373.886548 279.241859 
L 375.220117 277.997677 
L 376.553686 277.113675 
L 377.753898 276.551721 
L 381.687927 274.953705 
L 383.988333 273.652766 
L 384.088351 274.56995 
L 384.12169 274.323408 
L 384.288386 274.91463 
L 384.388404 275.118227 
L 384.888492 276.32802 
L 386.388758 279.595754 
L 386.422097 278.740854 
L 386.488775 278.8324 
L 386.522114 279.132394 
L 386.588793 279.004483 
L 386.688811 278.802905 
L 386.72215 278.827353 
L 386.922185 278.635327 
L 387.488952 278.211541 
L 388.555807 277.647648 
L 390.189429 276.858135 
L 394.256815 274.80749 
L 395.490366 274.562455 
L 396.890614 274.29516 
L 398.257522 273.739926 
L 399.357716 273.330791 
L 400.791303 272.972783 
L 400.891321 271.982636 
L 400.92466 272.206583 
L 401.091356 271.501104 
L 401.224713 271.106106 
L 402.524943 267.417681 
L 403.191727 265.726221 
L 403.225066 266.567685 
L 403.291745 266.452986 
L 403.325084 266.142161 
L 403.391763 266.247773 
L 403.49178 266.417376 
L 403.52512 266.382815 
L 403.725155 266.517516 
L 404.291922 266.81261 
L 405.825526 267.410038 
L 413.126816 270.087818 
L 418.194379 271.52554 
L 419.961358 272.538898 
L 423.29528 274.520415 
L 424.562171 274.812567 
L 425.128938 274.790532 
L 426.029097 274.486681 
L 427.19597 273.848238 
L 431.996818 270.77449 
L 431.996818 270.77449 
" clip-path="url(#pcf3577a314)" style="fill: none; stroke: #ff7f0e; stroke-width: 1.5; stroke-linecap: square"/>
   </g>
   <g id="patch_9">
    <path d="M 53.93 300.76 
L 53.93 177.04 
" style="fill: none; stroke: #000000; stroke-width: 0.8; stroke-linejoin: miter; stroke-linecap: square"/>
   </g>
   <g id="patch_10">
    <path d="M 450 300.76 
L 450 177.04 
" style="fill: none; stroke: #000000; stroke-width: 0.8; stroke-linejoin: miter; stroke-linecap: square"/>
   </g>
   <g id="patch_11">
    <path d="M 53.93 300.76 
L 450 300.76 
" style="fill: none; stroke: #000000; stroke-width: 0.8; stroke-linejoin: miter; stroke-linecap: square"/>
   </g>
   <g id="patch_12">
    <path d="M 53.93 177.04 
L 450 177.04 
" style="fill: none; stroke: #000000; stroke-width: 0.8; stroke-linejoin: miter; stroke-linecap: square"/>
   </g>
   <g id="legend_2">
    <g id="patch_13">
     <path d="M 384.6 214.416562 
L 443 214.416562 
Q 445 214.416562 445 212.416562 
L 445 184.04 
Q 445 182.04 443 182.04 
L 384.6 182.04 
Q 382.6 182.04 382.6 184.04 
L 382.6 212.416562 
Q 382.6 214.416562 384.6 214.416562 
z
" style="fill: #ffffff; opacity: 0.8; stroke: #cccccc; stroke-linejoin: miter"/>
    </g>
    <g id="line2d_29">
     <path d="M 386.6 190.138438 
L 396.6 190.138438 
L 406.6 190.138438 
" style="fill: none; stroke: #1f77b4; stroke-width: 1.5; stroke-linecap: square"/>
    </g>
    <g id="text_29">
     <!-- $E_{total}$ -->
     <g transform="translate(414.6 193.638438) scale(0.1 -0.1)">
      <defs>
       <path id="DejaVuSans-Oblique-45" d="M 1081 4666 
L 4031 4666 
L 3928 4134 
L 1606 4134 
L 1338 2753 
L 3566 2753 
L 3463 2222 
L 1234 2222 
L 909 531 
L 3284 531 
L 3181 0 
L 172 0 
L 1081 4666 
z
" transform="scale(0.015625)"/>
       <path id="DejaVuSans-Oblique-61" d="M 3438 1997 
L 3047 0 
L 2472 0 
L 2578 531 
Q 2325 219 2001 64 
Q 1678 -91 1281 -91 
Q 834 -91 548 182 
Q 263 456 263 884 
Q 263 1497 752 1853 
Q 1241 2209 2100 2209 
L 2900 2209 
L 2931 2363 
Q 2938 2388 2941 2417 
Q 2944 2447 2944 2509 
Q 2944 2788 2717 2942 
Q 2491 3097 2081 3097 
Q 1800 3097 1504 3025 
Q 1209 2953 897 2809 
L 997 3341 
Q 1322 3463 1633 3523 
Q 1944 3584 2234 3584 
Q 2853 3584 3176 3315 
Q 3500 3047 3500 2534 
Q 3500 2431 3484 2292 
Q 3469 2153 3438 1997 
z
M 2816 1759 
L 2241 1759 
Q 1534 1759 1195 1570 
Q 856 1381 856 984 
Q 856 709 1029 553 
Q 1203 397 1509 397 
Q 1978 397 2328 733 
Q 2678 1069 2791 1631 
L 2816 1759 
z
" transform="scale(0.015625)"/>
       <path id="DejaVuSans-Oblique-6c" d="M 1172 4863 
L 1747 4863 
L 800 0 
L 225 0 
L 1172 4863 
z
" transform="scale(0.015625)"/>
      </defs>
      <use xlink:href="#DejaVuSans-Oblique-45" transform="translate(0 0.09375)"/>
      <use xlink:href="#DejaVuSans-Oblique-74" transform="translate(63.183594 -16.3125) scale(0.7)"/>
      <use xlink:href="#DejaVuSans-Oblique-6f" transform="translate(90.629883 -16.3125) scale(0.7)"/>
      <use xlink:href="#DejaVuSans-Oblique-74" transform="translate(133.457031 -16.3125) scale(0.7)"/>
      <use xlink:href="#DejaVuSans-Oblique-61" transform="translate(160.90332 -16.3125) scale(0.7)"/>
      <use xlink:href="#DejaVuSans-Oblique-6c" transform="translate(203.798828 -16.3125) scale(0.7)"/>
     </g>
    </g>
    <g id="line2d_30">
     <path d="M 386.6 204.816563 
L 396.6 204.816563 
L 406.6 204.816563 
" style="fill: none; stroke: #ff7f0e; stroke-width: 1.5; stroke-linecap: square"/>
    </g>
    <g id="text_30">
     <!-- $q_{HVAC}$ -->
     <g transform="translate(414.6 208.316563) scale(0.1 -0.1)">
      <defs>
       <path id="DejaVuSans-Oblique-48" d="M 1081 4666 
L 1716 4666 
L 1344 2753 
L 3634 2753 
L 4006 4666 
L 4641 4666 
L 3731 0 
L 3097 0 
L 3531 2222 
L 1241 2222 
L 806 0 
L 172 0 
L 1081 4666 
z
" transform="scale(0.015625)"/>
       <path id="DejaVuSans-Oblique-56" d="M 1319 0 
L 500 4666 
L 1119 4666 
L 1797 653 
L 4063 4666 
L 4750 4666 
L 2053 0 
L 1319 0 
z
" transform="scale(0.015625)"/>
       <path id="DejaVuSans-Oblique-41" d="M 2356 4666 
L 3072 4666 
L 3938 0 
L 3278 0 
L 3084 1197 
L 984 1197 
L 325 0 
L -341 0 
L 2356 4666 
z
M 2584 4044 
L 1275 1722 
L 2988 1722 
L 2584 4044 
z
" transform="scale(0.015625)"/>
       <path id="DejaVuSans-Oblique-43" d="M 4447 4306 
L 4319 3641 
Q 4019 3944 3683 4091 
Q 3347 4238 2956 4238 
Q 2422 4238 2017 3981 
Q 1613 3725 1319 3200 
Q 1131 2863 1032 2486 
Q 934 2109 934 1728 
Q 934 1091 1264 756 
Q 1594 422 2222 422 
Q 2656 422 3056 561 
Q 3456 700 3834 978 
L 3688 231 
Q 3316 72 2936 -9 
Q 2556 -91 2175 -91 
Q 1278 -91 773 396 
Q 269 884 269 1753 
Q 269 2309 461 2846 
Q 653 3384 1013 3828 
Q 1394 4300 1883 4525 
Q 2372 4750 3022 4750 
Q 3422 4750 3780 4639 
Q 4138 4528 4447 4306 
z
" transform="scale(0.015625)"/>
      </defs>
      <use xlink:href="#DejaVuSans-Oblique-71"/>
      <use xlink:href="#DejaVuSans-Oblique-48" transform="translate(63.476562 -16.40625) scale(0.7)"/>
      <use xlink:href="#DejaVuSans-Oblique-56" transform="translate(116.113281 -16.40625) scale(0.7)"/>
      <use xlink:href="#DejaVuSans-Oblique-41" transform="translate(163.999023 -16.40625) scale(0.7)"/>
      <use xlink:href="#DejaVuSans-Oblique-43" transform="translate(211.884766 -16.40625) scale(0.7)"/>
     </g>
    </g>
   </g>
  </g>
 </g>
 <defs>
  <clipPath id="p5385f4fbc1">
   <rect x="53.93" y="25.44" width="396.07" height="123.72"/>
  </clipPath>
  <clipPath id="pcf3577a314">
   <rect x="53.93" y="177.04" width="396.07" height="123.72"/>
  </clipPath>
 </defs>
</svg>
